<svg width="500" height="500" viewBox="0 0 84 84" fill="none" xmlns="http://www.w3.org/2000/svg">
  <g id="9951e2fc">
    <g clip-path="url(#a02c5d45)">
      <circle id="51dc5b55" cx="42" cy="42" r="42" fill="url(#705bee71)"></circle>
      <path id="ce5341f8" fill-rule="evenodd" clip-rule="evenodd" d="M16.1266 32.8694H24.8984C27.6006 32.8694 29.7913 30.6671 29.7913 27.9505C29.7913 25.2338 27.6006 23.0315 24.8984 23.0315C24.0829 23.0315 23.3141 23.2321 22.6379 23.5868C21.6965 20.8415 19.1041 18.8694 16.0536 18.8694C12.2081 18.8694 9.09066 22.0034 9.09066 25.8694C9.09066 25.9486 9.09197 26.0275 9.09456 26.1061C7.97201 26.7124 7.20878 27.904 7.20878 29.2748C7.20878 31.26 8.80962 32.8694 10.7843 32.8694H16.0536C16.0646 32.8694 16.1266 32.8694 16.1266 32.8694H16.0536H16.1266Z" fill="#F6F6F8"></path>
      <g id="142c7ead">
        <path id="6b561f1e" fill-rule="evenodd" clip-rule="evenodd" d="M42.4523 82.4343C42.4523 86.6222 39.0545 90.017 34.863 90.017C30.6714 90.017 27.2737 86.6222 27.2737 82.4343C27.2737 78.2464 30.6714 74.8516 34.863 74.8516C39.0545 74.8516 42.4523 78.2464 42.4523 82.4343" fill="#BFD881"></path>
        <path id="263557a6" fill-rule="evenodd" clip-rule="evenodd" d="M39.1786 89.7197C39.1786 93.9076 35.7808 97.3024 31.5893 97.3024C27.3978 97.3024 24 93.9076 24 89.7197C24 85.5322 27.3978 82.137 31.5893 82.137C35.7808 82.137 39.1786 85.5322 39.1786 89.7197" fill="#BFD881"></path>
        <path id="ef936f62" fill-rule="evenodd" clip-rule="evenodd" d="M46.9165 73.811C46.9165 77.9989 43.5187 81.3937 39.3272 81.3937C35.1357 81.3937 31.7379 77.9989 31.7379 73.811C31.7379 69.6231 35.1357 66.2283 39.3272 66.2283C43.5187 66.2283 46.9165 69.6231 46.9165 73.811" fill="#BFD881"></path>
        <path id="76d2060e" fill-rule="evenodd" clip-rule="evenodd" d="M62.6902 97.1351H109.565V49.3447H62.6902V97.1351Z" fill="#FFA9B1"></path>
        <path id="c0685fcc" fill-rule="evenodd" clip-rule="evenodd" d="M103.353 38.2761H48.1072V54.9657H113.732L103.353 38.2761" fill="#A9555D"></path>
        <path id="9aff1b12" fill-rule="evenodd" clip-rule="evenodd" d="M63.1183 97.3024H32.7611V49.512L48.237 38.5737L63.1183 49.512V97.3024" fill="#FDC3C9"></path>
        <path id="2b3a4bc5" fill-rule="evenodd" clip-rule="evenodd" d="M30.5813 54.4889L28.9143 52.3943L48.2902 37L66.0728 51.6663L64.3679 53.7302L48.2589 40.4443L30.5813 54.4889" fill="#8C4F54"></path>
        <path id="ac1001cf" fill-rule="evenodd" clip-rule="evenodd" d="M108.252 79.1079H65.3822C65.0223 79.1079 64.8103 78.7047 65.0148 78.4085L70.7893 70.0452C70.8723 69.9248 71.0098 69.8525 71.1567 69.8525H103.174C103.33 69.8525 103.475 69.9337 103.556 70.0671L108.634 78.4304C108.814 78.7279 108.6 79.1079 108.252 79.1079" fill="#A9555D"></path>
        <path id="fdaf9788" fill-rule="evenodd" clip-rule="evenodd" d="M38.0625 97.3768H57.9286V77.9739H38.0625V97.3768Z" fill="#9E764F"></path>
        <path id="9fbac921" fill-rule="evenodd" clip-rule="evenodd" d="M58.5982 97.3769H57.2589V78.6431H38.7321V97.3769H37.3928V77.974C37.3928 77.6047 37.6924 77.3049 38.0625 77.3049H57.9285C58.2982 77.3049 58.5982 77.6047 58.5982 77.974V97.3769" fill="#FCFCFC"></path>
        <path id="229ad4a2" fill-rule="evenodd" clip-rule="evenodd" d="M71.2281 67.1205H78.1723V58.7402H71.2281V67.1205Z" fill="#9CC1DC"></path>
        <path id="ff766c54" fill-rule="evenodd" clip-rule="evenodd" d="M71.8978 66.4513H77.5027V59.4097H71.8978V66.4513ZM78.1723 67.7895H71.2281C70.8585 67.7895 70.5585 67.4897 70.5585 67.1204V58.7406C70.5585 58.3713 70.8585 58.0715 71.2281 58.0715H78.1723C78.5424 58.0715 78.842 58.3713 78.842 58.7406V67.1204C78.842 67.4897 78.5424 67.7895 78.1723 67.7895V67.7895Z" fill="#FFFFFE"></path>
        <path id="8e283bde" fill-rule="evenodd" clip-rule="evenodd" d="M70.8375 97.4513H78.3152V81.9138H70.8375V97.4513Z" fill="#9E764F"></path>
        <path id="aa06e700" fill-rule="evenodd" clip-rule="evenodd" d="M78.9848 97.4514H77.6455V82.5835H71.5071V97.4514H70.1678V81.9144C70.1678 81.5451 70.4678 81.2454 70.8375 81.2454H78.3152C78.6853 81.2454 78.9848 81.5451 78.9848 81.9144V97.4514" fill="#FCFCFC"></path>
        <path id="64738eb3" fill-rule="evenodd" clip-rule="evenodd" d="M53.6706 57.3722C53.4956 54.1727 50.8514 51.6294 47.6049 51.6294C44.3585 51.6294 41.7143 54.1727 41.5393 57.3722H41.5223V68.5701H53.6875V57.3722H53.6706" fill="#A8CBE4"></path>
        <path id="ad9165c1" fill-rule="evenodd" clip-rule="evenodd" d="M42.1919 67.9009H53.0178V57.5197L53.0018 57.4087C52.8451 54.5433 50.4745 52.2983 47.6049 52.2983C44.7353 52.2983 42.3647 54.5433 42.2076 57.4087L42.1919 57.5224V67.9009ZM53.6875 69.2391H41.5223C41.1522 69.2391 40.8527 68.9393 40.8527 68.57V57.3721C40.8527 57.3052 40.8625 57.24 40.8808 57.1789C41.1527 53.6793 44.0763 50.9602 47.6049 50.9602C51.1335 50.9602 54.0567 53.6793 54.3286 57.1789C54.3469 57.24 54.3571 57.3052 54.3571 57.3721V68.57C54.3571 68.9393 54.0571 69.2391 53.6875 69.2391V69.2391Z" fill="#FFFFFE"></path>
        <path id="46216c05" fill-rule="evenodd" clip-rule="evenodd" d="M46.9353 68.3101H48.2746V51.5835H46.9353V68.3101Z" fill="#FFFFFE"></path>
        <path id="8623108f" fill-rule="evenodd" clip-rule="evenodd" d="M41.6339 58.125H53.6129V56.7869H41.6339V58.125Z" fill="#FFFFFE"></path>
        <path id="80549a3a" fill-rule="evenodd" clip-rule="evenodd" d="M72.2142 90.2401H76.9388V83.7725H72.2142V90.2401Z" fill="#9CC1DC"></path>
        <path id="8d418e79" fill-rule="evenodd" clip-rule="evenodd" d="M39.625 97.3398H41.0629V78.6453H39.625V97.3398Z" fill="#B99068"></path>
        <path id="8391fa7b" fill-rule="evenodd" clip-rule="evenodd" d="M42.1816 97.3398H43.6196V78.6453H42.1816V97.3398Z" fill="#B99068"></path>
        <path id="106cc96f" fill-rule="evenodd" clip-rule="evenodd" d="M44.7384 97.3398H46.1763V78.6453H44.7384V97.3398Z" fill="#B99068"></path>
        <path id="e5c72e95" fill-rule="evenodd" clip-rule="evenodd" d="M47.295 97.3398H48.733V78.6453H47.295V97.3398Z" fill="#B99068"></path>
        <path id="8c7bc6ee" fill-rule="evenodd" clip-rule="evenodd" d="M49.8513 97.3398H51.2897V78.6453H49.8513V97.3398Z" fill="#B99068"></path>
        <path id="40266f2c" fill-rule="evenodd" clip-rule="evenodd" d="M52.4084 97.3398H53.8468V78.6453H52.4084V97.3398Z" fill="#B99068"></path>
        <path id="342145e5" fill-rule="evenodd" clip-rule="evenodd" d="M54.9652 97.3398H56.4036V78.6453H54.9652V97.3398Z" fill="#B99068"></path>
        <path id="606a82ff" fill-rule="evenodd" clip-rule="evenodd" d="M65.1482 80.3713H108.493V79.0332H65.1482V80.3713Z" fill="#32424F"></path>
        <path id="13f8e393" fill-rule="evenodd" clip-rule="evenodd" d="M63.1183 56.2112H113.721V54.873H63.1183V56.2112Z" fill="#813C42"></path>
        <path id="c2ac2d40" fill-rule="evenodd" clip-rule="evenodd" d="M71.2839 62.697H78.2411V61.3589H71.2839V62.697Z" fill="#FFFFFE"></path>
        <path id="56c63206" fill-rule="evenodd" clip-rule="evenodd" d="M103.762 77.5278H78.4643C78.0942 77.5278 77.7947 77.2281 77.7947 76.8588C77.7947 76.4894 78.0942 76.1897 78.4643 76.1897H103.762C104.132 76.1897 104.431 76.4894 104.431 76.8588C104.431 77.2281 104.132 77.5278 103.762 77.5278" fill="#32424F"></path>
        <path id="9f756ba6" fill-rule="evenodd" clip-rule="evenodd" d="M89.9223 74.8516H70.354C69.9843 74.8516 69.6843 74.5518 69.6843 74.1825C69.6843 73.8132 69.9843 73.5134 70.354 73.5134H89.9223C90.2924 73.5134 90.5919 73.8132 90.5919 74.1825C90.5919 74.5518 90.2924 74.8516 89.9223 74.8516" fill="#32424F"></path>
        <path id="09ccd4d8" fill-rule="evenodd" clip-rule="evenodd" d="M93.1964 72.3245H77.3482C76.9781 72.3245 76.6786 72.0247 76.6786 71.6554C76.6786 71.2861 76.9781 70.9863 77.3482 70.9863H93.1964C93.5661 70.9863 93.8661 71.2861 93.8661 71.6554C93.8661 72.0247 93.5661 72.3245 93.1964 72.3245" fill="#32424F"></path>
        <path id="a71e7eb4" fill-rule="evenodd" clip-rule="evenodd" d="M75.3393 77.3794H68.717C68.3474 77.3794 68.0474 77.0796 68.0474 76.7103C68.0474 76.341 68.3474 76.0413 68.717 76.0413H75.3393C75.709 76.0413 76.009 76.341 76.009 76.7103C76.009 77.0796 75.709 77.3794 75.3393 77.3794" fill="#32424F"></path>
        <path id="cdbfd7b4" fill-rule="evenodd" clip-rule="evenodd" d="M92.4522 52.6985H69.9076C69.5379 52.6985 69.2379 52.3987 69.2379 52.0294C69.2379 51.6601 69.5379 51.3604 69.9076 51.3604H92.4522C92.8223 51.3604 93.1218 51.6601 93.1218 52.0294C93.1218 52.3987 92.8223 52.6985 92.4522 52.6985" fill="#813C42"></path>
        <path id="07aa8d9e" fill-rule="evenodd" clip-rule="evenodd" d="M96.3956 49.5017H67.0058C66.6362 49.5017 66.3362 49.202 66.3362 48.8326C66.3362 48.4633 66.6362 48.1636 67.0058 48.1636H96.3956C96.7656 48.1636 97.0652 48.4633 97.0652 48.8326C97.0652 49.202 96.7656 49.5017 96.3956 49.5017" fill="#813C42"></path>
        <path id="d4fb74d2" fill-rule="evenodd" clip-rule="evenodd" d="M105.92 46.1565H67.9732C67.6031 46.1565 67.3036 45.8567 67.3036 45.4874C67.3036 45.1181 67.6031 44.8184 67.9732 44.8184H105.92C106.289 44.8184 106.589 45.1181 106.589 45.4874C106.589 45.8567 106.289 46.1565 105.92 46.1565" fill="#813C42"></path>
        <path id="e5b0ccb3" fill-rule="evenodd" clip-rule="evenodd" d="M82.0357 43.3315H58.4491C58.0794 43.3315 57.7794 43.0318 57.7794 42.6625C57.7794 42.2931 58.0794 41.9934 58.4491 41.9934H82.0357C82.4053 41.9934 82.7053 42.2931 82.7053 42.6625C82.7053 43.0318 82.4053 43.3315 82.0357 43.3315" fill="#813C42"></path>
        <path id="0e1935c7" fill-rule="evenodd" clip-rule="evenodd" d="M101.381 40.7295H55.6964C55.3263 40.7295 55.0267 40.4297 55.0267 40.0604C55.0267 39.6911 55.3263 39.3914 55.6964 39.3914H101.381C101.751 39.3914 102.05 39.6911 102.05 40.0604C102.05 40.4297 101.751 40.7295 101.381 40.7295" fill="#813C42"></path>
      </g>
      <circle id="e45bf4c9" cx="52" cy="15" r="7" fill="#FAE7A3"></circle>
      <path id="b662a15f" fill-rule="evenodd" clip-rule="evenodd" d="M60.3376 27.8693H49.85C46.6191 27.8693 44 25.2362 44 21.9881C44 18.74 46.6191 16.107 49.85 16.107C50.825 16.107 51.7442 16.3467 52.5526 16.7708C53.6783 13.4886 56.7777 11.1306 60.425 11.1306C65.0228 11.1306 68.75 14.8777 68.75 19.4999C68.75 19.5947 68.7484 19.689 68.7453 19.783C70.0875 20.5079 71 21.9326 71 23.5715C71 25.9451 69.086 27.8693 66.725 27.8693H60.425C60.4119 27.8693 60.3376 27.8693 60.3376 27.8693H60.425H60.3376Z" fill="#F6F6F8"></path>
    </g>
  </g>
  <defs>
    <linearGradient id="705bee71" x1="-40.0046" y1="42.6651" x2="42.6651" y2="125.335" gradientUnits="userSpaceOnUse">
      <stop stop-color="#BBD2DF"></stop>
      <stop offset="1" stop-color="#ADC0FF"></stop>
    </linearGradient>
    <clipPath id="a02c5d45">
      <rect width="84" height="84" rx="42" fill="white"></rect>
    </clipPath>
  </defs>
</svg>
