<svg width="84" height="84" viewBox="0 0 84 84" fill="none" xmlns="http://www.w3.org/2000/svg">
  <g id="19261d80" clip-path="url(#733baa56)">
    <rect id="95a3a8ee" width="84" height="84" fill="url(#2a4b0a16)"></rect>
    <path id="4cf4b885" fill-rule="evenodd" clip-rule="evenodd" d="M16.1266 32.8693H24.8984C27.6006 32.8693 29.7912 30.667 29.7912 27.9503C29.7912 25.2337 27.6006 23.0314 24.8984 23.0314C24.0829 23.0314 23.314 23.232 22.6379 23.5867C21.6965 20.8414 19.1041 18.8693 16.0536 18.8693C12.208 18.8693 9.09064 22.0033 9.09064 25.8693C9.09064 25.9485 9.09195 26.0274 9.09454 26.106C7.97199 26.7123 7.20876 27.9039 7.20876 29.2747C7.20876 31.2599 8.80959 32.8693 10.7843 32.8693H16.0536C16.0646 32.8693 16.1266 32.8693 16.1266 32.8693H16.0536H16.1266Z" fill="#F6F6F8"></path>
    <g id="220b94e1">
      <path id="1d33763f" fill-rule="evenodd" clip-rule="evenodd" d="M42.4522 82.4344C42.4522 86.6223 39.0545 90.0172 34.8629 90.0172C30.6714 90.0172 27.2737 86.6223 27.2737 82.4344C27.2737 78.2465 30.6714 74.8517 34.8629 74.8517C39.0545 74.8517 42.4522 78.2465 42.4522 82.4344" fill="#BFD881"></path>
      <path id="b482a91f" fill-rule="evenodd" clip-rule="evenodd" d="M39.1786 89.7196C39.1786 93.9075 35.7808 97.3023 31.5893 97.3023C27.3978 97.3023 24 93.9075 24 89.7196C24 85.5321 27.3978 82.1368 31.5893 82.1368C35.7808 82.1368 39.1786 85.5321 39.1786 89.7196" fill="#BFD881"></path>
      <path id="5c04af74" fill-rule="evenodd" clip-rule="evenodd" d="M46.9165 73.811C46.9165 77.9989 43.5188 81.3937 39.3272 81.3937C35.1357 81.3937 31.7379 77.9989 31.7379 73.811C31.7379 69.6231 35.1357 66.2283 39.3272 66.2283C43.5188 66.2283 46.9165 69.6231 46.9165 73.811" fill="#BFD881"></path>
      <path id="beb81cf6" fill-rule="evenodd" clip-rule="evenodd" d="M62.6902 97.1351H109.565V49.3447H62.6902V97.1351Z" fill="#FFA9B1"></path>
      <path id="b4a222eb" fill-rule="evenodd" clip-rule="evenodd" d="M103.353 38.2761H48.1071V54.9657H113.732L103.353 38.2761" fill="#A9555D"></path>
      <path id="aeefac83" fill-rule="evenodd" clip-rule="evenodd" d="M63.1183 97.3023H32.7612V49.5119L48.2371 38.5736L63.1183 49.5119V97.3023" fill="#FDC3C9"></path>
      <path id="e549d7be" fill-rule="evenodd" clip-rule="evenodd" d="M30.5812 54.4889L28.9143 52.3943L48.2902 37L66.0728 51.6663L64.3679 53.7302L48.2589 40.4443L30.5812 54.4889" fill="#8C4F54"></path>
      <path id="a7af9a9b" fill-rule="evenodd" clip-rule="evenodd" d="M108.252 79.1078H65.3821C65.0223 79.1078 64.8103 78.7046 65.0147 78.4084L70.7893 70.0451C70.8723 69.9247 71.0098 69.8524 71.1567 69.8524H103.174C103.33 69.8524 103.475 69.9336 103.556 70.067L108.633 78.4303C108.814 78.7278 108.6 79.1078 108.252 79.1078" fill="#A9555D"></path>
      <path id="5d62bfab" fill-rule="evenodd" clip-rule="evenodd" d="M38.0625 97.3769H57.9286V77.974H38.0625V97.3769Z" fill="#9E764F"></path>
      <path id="c0b078f7" fill-rule="evenodd" clip-rule="evenodd" d="M58.5982 97.3769H57.2589V78.6431H38.7321V97.3769H37.3929V77.974C37.3929 77.6047 37.6924 77.3049 38.0625 77.3049H57.9286C58.2982 77.3049 58.5982 77.6047 58.5982 77.974V97.3769" fill="#FCFCFC"></path>
      <path id="af45f5b4" fill-rule="evenodd" clip-rule="evenodd" d="M71.2281 67.1204H78.1723V58.7401H71.2281V67.1204Z" fill="#9CC1DC"></path>
      <path id="46eaeea6" fill-rule="evenodd" clip-rule="evenodd" d="M71.8978 66.4513H77.5027V59.4097H71.8978V66.4513ZM78.1723 67.7895H71.2281C70.8585 67.7895 70.5585 67.4897 70.5585 67.1204V58.7406C70.5585 58.3713 70.8585 58.0715 71.2281 58.0715H78.1723C78.5424 58.0715 78.842 58.3713 78.842 58.7406V67.1204C78.842 67.4897 78.5424 67.7895 78.1723 67.7895V67.7895Z" fill="#FFFFFE"></path>
      <path id="c1f5a1c3" fill-rule="evenodd" clip-rule="evenodd" d="M70.8375 97.4513H78.3152V81.9138H70.8375V97.4513Z" fill="#9E764F"></path>
      <path id="20d084cc" fill-rule="evenodd" clip-rule="evenodd" d="M78.9848 97.4513H77.6455V82.5834H71.5071V97.4513H70.1679V81.9143C70.1679 81.545 70.4679 81.2452 70.8375 81.2452H78.3152C78.6853 81.2452 78.9848 81.545 78.9848 81.9143V97.4513" fill="#FCFCFC"></path>
      <path id="02915339" fill-rule="evenodd" clip-rule="evenodd" d="M53.6705 57.3721C53.4955 54.1726 50.8513 51.6293 47.6049 51.6293C44.3585 51.6293 41.7143 54.1726 41.5393 57.3721H41.5223V68.57H53.6875V57.3721H53.6705" fill="#A8CBE4"></path>
      <path id="d0a10ebc" fill-rule="evenodd" clip-rule="evenodd" d="M42.192 67.9009H53.0179V57.5197L53.0018 57.4087C52.8451 54.5433 50.4746 52.2983 47.6049 52.2983C44.7353 52.2983 42.3647 54.5433 42.2076 57.4087L42.192 57.5224V67.9009ZM53.6875 69.2391H41.5223C41.1522 69.2391 40.8527 68.9393 40.8527 68.57V57.3721C40.8527 57.3052 40.8625 57.24 40.8808 57.1789C41.1527 53.6793 44.0763 50.9602 47.6049 50.9602C51.1335 50.9602 54.0567 53.6793 54.3286 57.1789C54.3469 57.24 54.3571 57.3052 54.3571 57.3721V68.57C54.3571 68.9393 54.0571 69.2391 53.6875 69.2391V69.2391Z" fill="#FFFFFE"></path>
      <path id="74397036" fill-rule="evenodd" clip-rule="evenodd" d="M46.9353 68.31H48.2746V51.5834H46.9353V68.31Z" fill="#FFFFFE"></path>
      <path id="fdfd057c" fill-rule="evenodd" clip-rule="evenodd" d="M41.6339 58.125H53.6129V56.7869H41.6339V58.125Z" fill="#FFFFFE"></path>
      <path id="7e5364ae" fill-rule="evenodd" clip-rule="evenodd" d="M72.2143 90.2402H76.9388V83.7726H72.2143V90.2402Z" fill="#9CC1DC"></path>
      <path id="470385a4" fill-rule="evenodd" clip-rule="evenodd" d="M39.625 97.3398H41.0629V78.6453H39.625V97.3398Z" fill="#B99068"></path>
      <path id="2752ad11" fill-rule="evenodd" clip-rule="evenodd" d="M42.1817 97.3398H43.6196V78.6453H42.1817V97.3398Z" fill="#B99068"></path>
      <path id="eb1769de" fill-rule="evenodd" clip-rule="evenodd" d="M44.7384 97.3398H46.1763V78.6453H44.7384V97.3398Z" fill="#B99068"></path>
      <path id="be1cfc35" fill-rule="evenodd" clip-rule="evenodd" d="M47.2951 97.3398H48.733V78.6453H47.2951V97.3398Z" fill="#B99068"></path>
      <path id="e1f6e91f" fill-rule="evenodd" clip-rule="evenodd" d="M49.8513 97.3398H51.2897V78.6453H49.8513V97.3398Z" fill="#B99068"></path>
      <path id="82411260" fill-rule="evenodd" clip-rule="evenodd" d="M52.4085 97.3398H53.8469V78.6453H52.4085V97.3398Z" fill="#B99068"></path>
      <path id="8182cff5" fill-rule="evenodd" clip-rule="evenodd" d="M54.9652 97.3398H56.4036V78.6453H54.9652V97.3398Z" fill="#B99068"></path>
      <path id="8c182c83" fill-rule="evenodd" clip-rule="evenodd" d="M65.1482 80.3715H108.493V79.0333H65.1482V80.3715Z" fill="#32424F"></path>
      <path id="eeb003b3" fill-rule="evenodd" clip-rule="evenodd" d="M63.1183 56.2111H113.721V54.8729H63.1183V56.2111Z" fill="#813C42"></path>
      <path id="fa22da1d" fill-rule="evenodd" clip-rule="evenodd" d="M71.2839 62.697H78.2411V61.3589H71.2839V62.697Z" fill="#FFFFFE"></path>
      <path id="169386af" fill-rule="evenodd" clip-rule="evenodd" d="M103.762 77.5279H78.4643C78.0942 77.5279 77.7946 77.2282 77.7946 76.8589C77.7946 76.4896 78.0942 76.1898 78.4643 76.1898H103.762C104.132 76.1898 104.431 76.4896 104.431 76.8589C104.431 77.2282 104.132 77.5279 103.762 77.5279" fill="#32424F"></path>
      <path id="b983b556" fill-rule="evenodd" clip-rule="evenodd" d="M89.9223 74.8517H70.354C69.9844 74.8517 69.6844 74.5519 69.6844 74.1826C69.6844 73.8133 69.9844 73.5135 70.354 73.5135H89.9223C90.2924 73.5135 90.592 73.8133 90.592 74.1826C90.592 74.5519 90.2924 74.8517 89.9223 74.8517" fill="#32424F"></path>
      <path id="10654947" fill-rule="evenodd" clip-rule="evenodd" d="M93.1964 72.3243H77.3482C76.9781 72.3243 76.6786 72.0246 76.6786 71.6553C76.6786 71.2859 76.9781 70.9862 77.3482 70.9862H93.1964C93.5661 70.9862 93.8661 71.2859 93.8661 71.6553C93.8661 72.0246 93.5661 72.3243 93.1964 72.3243" fill="#32424F"></path>
      <path id="6543d344" fill-rule="evenodd" clip-rule="evenodd" d="M75.3393 77.3794H68.717C68.3473 77.3794 68.0473 77.0796 68.0473 76.7103C68.0473 76.341 68.3473 76.0413 68.717 76.0413H75.3393C75.7089 76.0413 76.0089 76.341 76.0089 76.7103C76.0089 77.0796 75.7089 77.3794 75.3393 77.3794" fill="#32424F"></path>
      <path id="74927075" fill-rule="evenodd" clip-rule="evenodd" d="M92.4522 52.6985H69.9076C69.5379 52.6985 69.2379 52.3987 69.2379 52.0294C69.2379 51.6601 69.5379 51.3604 69.9076 51.3604H92.4522C92.8223 51.3604 93.1219 51.6601 93.1219 52.0294C93.1219 52.3987 92.8223 52.6985 92.4522 52.6985" fill="#813C42"></path>
      <path id="09ff8f98" fill-rule="evenodd" clip-rule="evenodd" d="M96.3955 49.5017H67.0058C66.6362 49.5017 66.3362 49.202 66.3362 48.8326C66.3362 48.4633 66.6362 48.1636 67.0058 48.1636H96.3955C96.7656 48.1636 97.0652 48.4633 97.0652 48.8326C97.0652 49.202 96.7656 49.5017 96.3955 49.5017" fill="#813C42"></path>
      <path id="1525fcdb" fill-rule="evenodd" clip-rule="evenodd" d="M105.92 46.1564H67.9732C67.6031 46.1564 67.3036 45.8566 67.3036 45.4873C67.3036 45.118 67.6031 44.8182 67.9732 44.8182H105.92C106.289 44.8182 106.589 45.118 106.589 45.4873C106.589 45.8566 106.289 46.1564 105.92 46.1564" fill="#813C42"></path>
      <path id="987a6028" fill-rule="evenodd" clip-rule="evenodd" d="M82.0357 43.3315H58.4491C58.0795 43.3315 57.7795 43.0318 57.7795 42.6625C57.7795 42.2931 58.0795 41.9934 58.4491 41.9934H82.0357C82.4054 41.9934 82.7054 42.2931 82.7054 42.6625C82.7054 43.0318 82.4054 43.3315 82.0357 43.3315" fill="#813C42"></path>
      <path id="e79fc478" fill-rule="evenodd" clip-rule="evenodd" d="M101.381 40.7294H55.6964C55.3263 40.7294 55.0268 40.4296 55.0268 40.0603C55.0268 39.691 55.3263 39.3912 55.6964 39.3912H101.381C101.751 39.3912 102.05 39.691 102.05 40.0603C102.05 40.4296 101.751 40.7294 101.381 40.7294" fill="#813C42"></path>
    </g>
    <circle id="d026a9f1" cx="52" cy="15" r="7" fill="#FAE7A3"></circle>
    <path id="f5008a2b" fill-rule="evenodd" clip-rule="evenodd" d="M60.3376 27.8694H49.85C46.6191 27.8694 44 25.2363 44 21.9882C44 18.7402 46.6191 16.1071 49.85 16.1071C50.825 16.1071 51.7442 16.3469 52.5526 16.771C53.6783 13.4887 56.7777 11.1307 60.425 11.1307C65.0228 11.1307 68.75 14.8778 68.75 19.5001C68.75 19.5948 68.7484 19.6892 68.7453 19.7831C70.0875 20.508 71 21.9327 71 23.5716C71 25.9452 69.086 27.8694 66.725 27.8694H60.425C60.4119 27.8694 60.3376 27.8694 60.3376 27.8694H60.425H60.3376Z" fill="#F6F6F8"></path>
  </g>
  <defs>
    <linearGradient id="2a4b0a16" x1="-40.0046" y1="42.6651" x2="42.6651" y2="125.335" gradientUnits="userSpaceOnUse">
      <stop stop-color="#BBD2DF"></stop>
      <stop offset="1" stop-color="#ADC0FF"></stop>
    </linearGradient>
    <clipPath id="733baa56">
      <rect width="84" height="84" fill="white"></rect>
    </clipPath>
  </defs>
</svg>