<svg width="84" height="84" viewBox="0 0 84 84" fill="none" xmlns="http://www.w3.org/2000/svg">
  <g id="5eac69ae">
    <g clip-path="url(#4eda7130)">
      <rect id="91091f90" width="84" height="84" fill="url(#3e27d924)"></rect>
      <g id="c2b0465a">
        <path d="M34.6399 35.1444C32.4815 33.6263 29.363 34.9757 27.684 33.7521C25.4399 32.1167 24.9302 31.6889 22.8809 31.2422C21.01 30.8343 19.316 31.7571 17.514 29.7141C16.2187 28.2457 14.997 28.3944 13.4339 28.7207C11.8708 29.047 11.3905 28.6858 9.28682 27.2056C7.89563 26.2267 6.62438 25.88 3.74608 25.9616C1.31852 26.0305 -0.590761 25.573 -2.36533 25C-4.07178 28.2529 -5.30888 31.7215 -5.99084 35.35C0.961222 35.9705 3.05087 35.7008 5.76089 36.4441C8.73514 37.2599 37.6462 42.236 38.1579 41.9913C38.6697 41.7465 39.0092 37.8629 39.0092 37.8629C36.1057 37.4168 36.0662 36.1477 34.6399 35.1444Z" fill="#36B294"></path>
        <path d="M34.6399 35.1444C32.4815 33.6263 29.363 34.9757 27.684 33.7521C25.4399 32.1167 24.9302 31.6889 22.8809 31.2422C21.01 30.8343 19.316 31.7571 17.514 29.7141C16.2187 28.2457 14.997 28.3944 13.4339 28.7207C11.8708 29.047 11.3905 28.6858 9.28682 27.2056C7.89563 26.2267 6.62438 25.88 3.74608 25.9616C1.31852 26.0305 -0.590761 25.573 -2.36533 25C-4.07178 28.2529 -5.30888 31.7215 -5.99084 35.35C0.961222 35.9705 3.05087 35.7008 5.76089 36.4441C8.73514 37.2599 37.6462 42.236 38.1579 41.9913C38.6697 41.7465 39.0092 37.8629 39.0092 37.8629C36.1057 37.4168 36.0662 36.1477 34.6399 35.1444Z" fill="#5D6583" fill-opacity="0.738227"></path>
      </g>
      <g id="962dfdbb">
        <g id="0553d1d2">
          <path d="M69.3171 45.4484C68.8588 45.4484 68.4879 45.0773 68.4879 44.6197V35.695C68.4879 35.2374 68.859 34.8663 69.3171 34.8663C69.7753 34.8663 70.1462 35.2374 70.1462 35.695V44.6197C70.1462 45.0774 69.7753 45.4484 69.3171 45.4484Z" fill="#674447"></path>
          <path d="M69.3171 45.4484C68.8588 45.4484 68.4879 45.0773 68.4879 44.6197V35.695C68.4879 35.2374 68.859 34.8663 69.3171 34.8663C69.7753 34.8663 70.1462 35.2374 70.1462 35.695V44.6197C70.1462 45.0774 69.7753 45.4484 69.3171 45.4484Z" fill="#8588A6" fill-opacity="0.469706"></path>
        </g>
        <g id="203e7f80">
          <path d="M74.5395 34.9347C74.5395 37.8191 72.2013 40.1573 69.3169 40.1573C66.4325 40.1573 64.0943 37.8191 64.0943 34.9347C64.0943 32.0503 66.4325 23.1837 69.3169 23.1837C72.2013 23.1839 74.5395 32.0503 74.5395 34.9347Z" fill="#43AB5F"></path>
          <path d="M74.5395 34.9347C74.5395 37.8191 72.2013 40.1573 69.3169 40.1573C66.4325 40.1573 64.0943 37.8191 64.0943 34.9347C64.0943 32.0503 66.4325 23.1837 69.3169 23.1837C72.2013 23.1839 74.5395 32.0503 74.5395 34.9347Z" fill="#A0A7C3" fill-opacity="0.398585"></path>
        </g>
        <g id="f1ecb10f">
          <path d="M69.3169 23.1837C68.5929 23.1837 67.9033 23.7433 67.2765 24.626H67.2766C69.9166 24.626 72.0566 32.7412 72.0566 35.3811C72.0566 37.6775 70.436 39.5921 68.2769 40.0525C68.6131 40.1204 68.9606 40.1573 69.3167 40.1573C72.2011 40.1573 74.5393 37.8191 74.5393 34.9347C74.5395 32.0503 72.2011 23.1837 69.3169 23.1837Z" fill="#71BE63"></path>
          <path d="M69.3169 23.1837C68.5929 23.1837 67.9033 23.7433 67.2765 24.626H67.2766C69.9166 24.626 72.0566 32.7412 72.0566 35.3811C72.0566 37.6775 70.436 39.5921 68.2769 40.0525C68.6131 40.1204 68.9606 40.1573 69.3167 40.1573C72.2011 40.1573 74.5393 37.8191 74.5393 34.9347C74.5395 32.0503 72.2011 23.1837 69.3169 23.1837Z" fill="#A0A7C3" fill-opacity="0.45"></path>
        </g>
      </g>
      <path id="16c2cd96" d="M41.8919 40.4392C40.6771 40.4392 40.4745 39.3537 40.3554 39.1343C39.0257 36.6876 37.4161 37.8294 34.7751 37.8294C32.7104 37.8294 32.2883 35.1108 31.1359 35.2196C29.9835 35.3284 28.1269 37.0681 26.5263 36.5245C24.2294 35.7442 24.1574 34.5671 21.9164 33.9147C19.9391 33.3389 18.2671 33.7516 17.3066 32.6098C15.4366 30.3866 14.0895 32.8137 11.1602 31.3049C8.18117 29.7703 7.25477 32.6098 5.01402 32.6098C2.65992 32.6098 3.47729 30 0.404193 30C-1.3367 30 -2.36275 31.9182 -4.56468 32.4605C-5.32646 35.4475 -5.74219 38.5516 -5.74219 41.7441C-5.74219 43.3902 -5.62341 45.0107 -5.41545 46.6069C-4.70873 47.1995 -3.94461 47.7207 -3.17832 48.018C-0.431053 49.0841 57.2578 50 57.2578 50V45.6588C53.0321 45.6588 53.0321 43.049 49.5749 43.049C44.917 43.049 45.3492 40.4392 41.8919 40.4392Z" fill="#59928E"></path>
      <path id="e75abef1" d="M13.0334 76.2728L56.4375 51.8598L55.3387 49.3695C44.8292 49.3695 26.592 38.1502 -6.5625 42.1251C-6.5625 54.3893 -2.2829 65.5969 4.7808 74.2163C9.21754 75.3293 13.0334 76.2728 13.0334 76.2728Z" fill="#739A8F"></path>
      <path id="6d26fd55" d="M55.4531 48.1798C46.8197 48.1798 32.3562 40.1392 7.11326 41.4183C29.5562 41.4376 43.3194 51.484 50.3672 51.484L52.3359 50.7497L55.5117 48.3064L55.4531 48.1798Z" fill="#87ADA2"></path>
      <path id="db16521d" d="M37.5142 9.46082C37.8651 9.46082 38.2008 9.51627 38.5268 9.59732C39.6255 8.41065 40.2514 7.65613 42.9282 7.65613C45.605 7.65613 48.0734 9.88534 48.1875 12.3478C48.3016 14.8103 47.3315 15.8049 39 15.8049C33.717 15.8049 33.717 14.1358 33.717 12.3478C33.717 10.5598 35.73 9.46082 37.5142 9.46082Z" fill="url(#94e113ac)"></path>
      <g id="79ed4044">
        <path d="M-18 64.8871C-8.07041 86.7664 14.0199 102 39.6975 102C74.6585 102 103 73.7768 103 38.9616C103 38.3036 102.97 37.653 102.95 37C63.8049 37.1788 46.054 64.5709 -18 64.5709V64.8871Z" fill="#71BE63"></path>
        <path d="M-18 64.8871C-8.07041 86.7664 14.0199 102 39.6975 102C74.6585 102 103 73.7768 103 38.9616C103 38.3036 102.97 37.653 102.95 37C63.8049 37.1788 46.054 64.5709 -18 64.5709V64.8871Z" fill="#477468"></path>
      </g>
      <g id="cb2a4617">
        <g id="487eff85">
          <path d="M57.2582 50.7495C56.7382 50.7495 56.3171 50.3285 56.3171 49.8093V39.6817C56.3171 39.1624 56.7381 38.7415 57.2582 38.7415C57.7782 38.7415 58.1991 39.1624 58.1991 39.6817V49.8093C58.1991 50.3285 57.7781 50.7495 57.2582 50.7495Z" fill="#674447"></path>
          <path d="M57.2582 50.7495C56.7382 50.7495 56.3171 50.3285 56.3171 49.8093V39.6817C56.3171 39.1624 56.7381 38.7415 57.2582 38.7415C57.7782 38.7415 58.1991 39.1624 58.1991 39.6817V49.8093C58.1991 50.3285 57.7781 50.7495 57.2582 50.7495Z" fill="#8588A6" fill-opacity="0.469706"></path>
        </g>
        <g id="6437a61d">
          <path d="M63.1842 38.819C63.1842 42.0921 60.5309 44.7455 57.2578 44.7455C53.9848 44.7455 51.3314 42.0921 51.3314 38.819C51.3314 35.546 53.9848 25.4844 57.2578 25.4844C60.5309 25.4844 63.1842 35.5458 63.1842 38.819Z" fill="#43AB5F"></path>
          <path d="M63.1842 38.819C63.1842 42.0921 60.5309 44.7455 57.2578 44.7455C53.9848 44.7455 51.3314 42.0921 51.3314 38.819C51.3314 35.546 53.9848 25.4844 57.2578 25.4844C60.5309 25.4844 63.1842 35.5458 63.1842 38.819Z" fill="#A0A7C3" fill-opacity="0.398585"></path>
        </g>
        <g id="e854de40">
          <path d="M57.2578 25.4844C56.4362 25.4844 55.6538 26.1195 54.9424 27.1211H54.9426C57.9384 27.1211 60.3668 36.3299 60.3668 39.3257C60.3668 41.9315 58.5278 44.1042 56.0777 44.6267C56.4592 44.7038 56.8536 44.7456 57.2577 44.7456C60.5307 44.7456 63.1843 42.0923 63.1843 38.8192C63.1844 35.5458 60.5309 25.4844 57.2578 25.4844Z" fill="#71BE63"></path>
          <path d="M57.2578 25.4844C56.4362 25.4844 55.6538 26.1195 54.9424 27.1211H54.9426C57.9384 27.1211 60.3668 36.3299 60.3668 39.3257C60.3668 41.9315 58.5278 44.1042 56.0777 44.6267C56.4592 44.7038 56.8536 44.7456 57.2577 44.7456C60.5307 44.7456 63.1843 42.0923 63.1843 38.8192C63.1844 35.5458 60.5309 25.4844 57.2578 25.4844Z" fill="#A0A7C3" fill-opacity="0.45"></path>
        </g>
      </g>
      <path id="1c2b4b28" opacity="0.800059" d="M56.6904 73.1242C56.8548 73.104 57.0042 73.2205 57.0244 73.3849L57.3906 76.3625C57.4105 76.5267 57.2932 76.6763 57.1289 76.6964C56.9646 76.7164 56.8151 76.599 56.7949 76.4347L56.4296 73.4582C56.4095 73.2938 56.5261 73.1445 56.6904 73.1242ZM39.2402 66.6701C39.4044 66.6502 39.5538 66.7667 39.5742 66.9308L39.9394 69.9084C39.9596 70.0727 39.843 70.222 39.6787 70.2423C39.5142 70.2625 39.3649 70.146 39.3447 69.9816L38.9785 67.0041C38.9584 66.8397 39.0758 66.6903 39.2402 66.6701ZM18.6357 65.9152C18.8002 65.895 18.9505 66.0125 18.9707 66.1769L19.3359 69.1544C19.3558 69.3186 19.2392 69.468 19.0752 69.4884C18.9109 69.5084 18.7615 69.3918 18.7412 69.2277L18.374 66.2501C18.3538 66.0859 18.4715 65.9356 18.6357 65.9152ZM75.9785 63.7433C76.1428 63.7231 76.293 63.8398 76.3134 64.0041L76.9228 68.9669C76.9429 69.1313 76.8255 69.2817 76.6611 69.3019C76.4969 69.3219 76.3475 69.2043 76.3271 69.0402L75.7177 64.0773C75.6978 63.9131 75.8144 63.7637 75.9785 63.7433ZM6.75777 58.6242C6.92214 58.604 7.07145 58.7206 7.09176 58.8849L7.45797 61.8625C7.47816 62.0269 7.3607 62.1772 7.19625 62.1974C7.03196 62.2174 6.88244 62.1 6.86227 61.9357L6.49703 58.9582C6.47687 58.7938 6.59342 58.6444 6.75777 58.6242ZM58.6914 53.1232C58.8554 53.1035 59.005 53.22 59.0254 53.3839L59.3906 56.3615C59.4108 56.5259 59.2933 56.6762 59.1289 56.6964C58.9647 56.7164 58.8153 56.5998 58.7949 56.4357L58.4296 53.4582C58.4095 53.2937 58.5269 53.1434 58.6914 53.1232ZM21.6914 49.1232C21.8554 49.1035 22.005 49.22 22.0254 49.3839L22.3906 52.3625C22.4105 52.5267 22.2932 52.6763 22.1289 52.6964C21.9646 52.7164 21.8151 52.599 21.7949 52.4347L21.4296 49.4582C21.4095 49.2937 21.5269 49.1434 21.6914 49.1232ZM80.164 48.675C80.2016 48.6857 80.2363 48.704 80.2666 48.7277C80.2968 48.7513 80.3223 48.7809 80.3418 48.8146C80.3611 48.8482 80.3748 48.886 80.3798 48.9269L80.7451 51.9054C80.7476 51.9259 80.7477 51.9462 80.7461 51.966C80.7412 52.0254 80.719 52.0808 80.6836 52.1261C80.6668 52.1476 80.6461 52.1655 80.624 52.1818C80.5994 52.2 80.5728 52.2157 80.5429 52.2257C80.5242 52.232 80.5047 52.2369 80.4843 52.2394H80.4824C80.3185 52.2587 80.1695 52.1416 80.1494 51.9777L79.7841 49.0001C79.7792 48.9593 79.7823 48.9193 79.7929 48.882C79.8248 48.7694 79.9215 48.6814 80.0449 48.6662C80.0861 48.6611 80.1265 48.6642 80.164 48.675ZM38.6904 45.1232C38.8548 45.103 39.0052 45.2205 39.0254 45.3849L39.3906 48.3625C39.4106 48.5268 39.2932 48.6763 39.1289 48.6964C38.9647 48.7164 38.8153 48.5998 38.7949 48.4357L38.4296 45.4572C38.4097 45.2929 38.5262 45.1435 38.6904 45.1232ZM72.5742 42.2453C72.7384 42.2252 72.8878 42.3418 72.9082 42.506L73.0302 43.4992C73.0503 43.6634 72.9336 43.8127 72.7695 43.8332C72.6051 43.8533 72.4549 43.7367 72.4345 43.5724L72.3125 42.5792C72.2925 42.4149 72.4098 42.2654 72.5742 42.2453ZM52.3066 39.1417C52.4455 39.153 52.5624 39.2607 52.58 39.4044L52.9453 42.382C52.9478 42.4025 52.9478 42.4227 52.9463 42.4425C52.9353 42.5815 52.8283 42.6981 52.6845 42.716C52.5817 42.7286 52.484 42.6881 52.4209 42.6154C52.3957 42.5864 52.3759 42.5524 52.3632 42.5148C52.3569 42.4958 52.3521 42.4759 52.3496 42.4552L51.9843 39.4777C51.9818 39.4569 51.9807 39.4362 51.9824 39.4162C51.9873 39.3566 52.0103 39.3013 52.0459 39.256C52.0576 39.241 52.0705 39.2266 52.0849 39.214C52.1284 39.1762 52.1837 39.1504 52.2451 39.1427C52.2659 39.1402 52.2865 39.1401 52.3066 39.1417ZM2.66988 36.046C2.83411 36.026 2.98349 36.1426 3.00387 36.3068L3.49117 40.2775C3.51131 40.4418 3.39474 40.5912 3.23043 40.6115C3.06604 40.6317 2.91575 40.5151 2.89547 40.3507L2.40817 36.38C2.38816 36.2157 2.50554 36.0662 2.66988 36.046ZM17.6904 34.1232C17.8548 34.103 18.0042 34.2205 18.0244 34.3849L18.3906 37.3625C18.4106 37.5268 18.2932 37.6763 18.1289 37.6964C17.9647 37.7164 17.8153 37.5998 17.7949 37.4357L17.4296 34.4572C17.4097 34.2929 17.5261 34.1434 17.6904 34.1232ZM40.8193 30.1232C40.9837 30.103 41.1341 30.2205 41.1543 30.3849L41.2763 31.3771C41.2963 31.5412 41.1796 31.6905 41.0156 31.7111C40.8511 31.7313 40.7008 31.6138 40.6806 31.4494L40.5586 30.4572C40.5386 30.2931 40.6553 30.1436 40.8193 30.1232ZM58.2138 26.7941C58.3261 26.826 58.4143 26.9228 58.4296 27.046L58.7959 30.0246C58.8158 30.1888 58.6984 30.3393 58.5341 30.3595C58.3699 30.3797 58.2196 30.262 58.1992 30.0978L57.8339 27.1193C57.8315 27.0988 57.8314 27.0785 57.833 27.0587C57.8362 27.0189 57.8466 26.9808 57.8642 26.9464C57.908 26.8609 57.993 26.7979 58.0957 26.7853C58.1365 26.7804 58.1766 26.7835 58.2138 26.7941ZM50.2959 23.2619C50.4602 23.2419 50.6106 23.3592 50.6308 23.5236L50.9951 26.5011C50.9975 26.5214 50.9986 26.542 50.997 26.5617C50.9939 26.6016 50.9824 26.6395 50.9648 26.674C50.9419 26.719 50.9072 26.7568 50.8652 26.7853C50.8271 26.8111 50.7832 26.8301 50.7343 26.8361C50.6931 26.8411 50.6528 26.8371 50.6152 26.8263C50.5029 26.7941 50.4146 26.6975 50.3994 26.5744L50.0341 23.5968C50.0139 23.4324 50.1314 23.2821 50.2959 23.2619ZM15.8984 22.1232C16.0627 22.103 16.212 22.2197 16.2324 22.3839L16.5986 25.3625C16.6185 25.5267 16.5012 25.6763 16.3369 25.6964C16.1726 25.7164 16.0231 25.599 16.0029 25.4347L15.6377 22.4572C15.6176 22.2929 15.7341 22.1434 15.8984 22.1232ZM33.7558 22.005C33.9202 21.985 34.0706 22.1024 34.0908 22.2667L34.456 25.2443C34.4759 25.4086 34.3586 25.5581 34.1943 25.5783C34.03 25.5984 33.8797 25.4817 33.8593 25.3175L33.4941 22.34C33.4739 22.1755 33.5914 22.0252 33.7558 22.005ZM70.2588 23.3869C70.423 23.3668 70.5723 23.4835 70.5927 23.6476L70.7148 24.6408C70.7349 24.8051 70.6175 24.9546 70.4531 24.9748C70.2889 24.9947 70.1394 24.8782 70.1191 24.714L69.997 23.7209C69.977 23.5565 70.0944 23.407 70.2588 23.3869ZM78.5615 12.1232C78.7257 12.1032 78.875 12.2198 78.8955 12.3839L79.5048 17.3468C79.525 17.5111 79.4083 17.6614 79.2441 17.6818C79.0797 17.702 78.9294 17.5845 78.9091 17.4201L78.3007 12.4572C78.2807 12.2928 78.3971 12.1434 78.5615 12.1232ZM56.1611 13.0158C56.3255 12.9956 56.4759 13.1121 56.4961 13.2765L56.8613 16.2541C56.8815 16.4184 56.7648 16.5677 56.6005 16.588C56.4361 16.6082 56.2858 16.4917 56.2656 16.3273L55.9004 13.3498C55.8802 13.1855 55.9969 13.0362 56.1611 13.0158ZM40.2588 11.3869C40.423 11.3668 40.5724 11.4834 40.5927 11.6476L40.7148 12.6408C40.7348 12.8051 40.6174 12.9556 40.4531 12.9757C40.289 12.9956 40.1395 12.8781 40.1191 12.714L39.998 11.7209C39.978 11.5565 40.0944 11.407 40.2588 11.3869ZM47.6904 8.48745C47.8547 8.46727 48.005 8.5839 48.0254 8.74819L48.3906 11.7257C48.4108 11.8902 48.2933 12.0405 48.1289 12.0607C47.9646 12.0806 47.8151 11.9633 47.7949 11.799L47.4296 8.82144C47.4096 8.65712 47.5261 8.50772 47.6904 8.48745ZM31.9277 7.11733C32.0304 7.10476 32.1273 7.14532 32.1904 7.21792C32.2156 7.24685 32.2353 7.28088 32.248 7.31851C32.2544 7.33745 32.2591 7.35746 32.2617 7.37808L32.6279 10.3556C32.643 10.4788 32.5807 10.594 32.4795 10.6525C32.4456 10.672 32.4074 10.6855 32.3662 10.6906C32.3457 10.6931 32.3254 10.6931 32.3056 10.6916C32.1665 10.6804 32.0489 10.5727 32.0312 10.4289L31.8486 8.9396L31.666 7.45132C31.6603 7.40518 31.6676 7.36076 31.6816 7.31948C31.7173 7.21362 31.8094 7.13186 31.9277 7.11733ZM69.0673 3.75015C69.2007 3.73396 69.3223 3.82873 69.3388 3.96206L70.1298 10.4113C70.146 10.5447 70.0514 10.6654 69.9179 10.6818C69.7845 10.6981 69.6638 10.6033 69.6474 10.4699L68.8545 4.02163C68.8382 3.88815 68.9339 3.76655 69.0673 3.75015ZM10.7382 -4.87681C10.9026 -4.89682 11.052 -4.77944 11.0722 -4.61509L12.291 5.30972C12.3112 5.47403 12.1945 5.62429 12.0302 5.64468C11.8658 5.66487 11.7155 5.54741 11.6953 5.38296L10.4765 -4.54282C10.4566 -4.70709 10.5739 -4.85663 10.7382 -4.87681ZM54.7382 -4.87681C54.9026 -4.89678 55.0521 -4.77942 55.0722 -4.61509L56.291 5.30972C56.3112 5.47417 56.1937 5.62449 56.0293 5.64468C55.865 5.66458 55.7154 5.54725 55.6953 5.38296L54.4765 -4.54282C54.4566 -4.70708 54.574 -4.85663 54.7382 -4.87681Z" fill="url(#09e7d9ec)"></path>
      <path id="dc44d035" d="M21.7952 20.8984H28.6975C30.8238 20.8984 32.5475 19.1681 32.5475 17.0336C32.5475 14.8991 30.8238 13.1687 28.6975 13.1687C28.0558 13.1687 27.4508 13.3263 26.9188 13.605C26.178 11.448 24.1381 9.89844 21.7377 9.89844C18.7118 9.89844 16.2588 12.3609 16.2588 15.3984C16.2588 15.4607 16.2598 15.5227 16.2619 15.5845C15.3785 16.0608 14.778 16.9971 14.778 18.0741C14.778 19.6339 16.0376 20.8984 17.5915 20.8984H21.7377C21.7464 20.8984 21.7952 20.8984 21.7952 20.8984H21.7377H21.7952Z" fill="url(#9a256019)"></path>
    </g>
  </g>
  <defs>
    <linearGradient id="3e27d924" x1="126" y1="42" x2="42" y2="-42" gradientUnits="userSpaceOnUse">
      <stop stop-color="#253363"></stop>
      <stop offset="1" stop-color="#5A79E8"></stop>
    </linearGradient>
    <linearGradient id="94e113ac" x1="37.8537" y1="0.322252" x2="28.668" y2="18.6957" gradientUnits="userSpaceOnUse">
      <stop stop-color="white"></stop>
      <stop offset="1" stop-color="white" stop-opacity="0.01"></stop>
    </linearGradient>
    <linearGradient id="09e7d9ec" x1="19.6549" y1="-0.222365" x2="23.8548" y2="41.1928" gradientUnits="userSpaceOnUse">
      <stop stop-color="#BAC1F7"></stop>
      <stop offset="1" stop-color="#F1F1F1" stop-opacity="0.501584"></stop>
    </linearGradient>
    <linearGradient id="9a256019" x1="18.0563" y1="-12.4888" x2="35.5129" y2="19.2684" gradientUnits="userSpaceOnUse">
      <stop stop-color="white"></stop>
      <stop offset="1" stop-color="white" stop-opacity="0.01"></stop>
    </linearGradient>
    <clipPath id="4eda7130">
      <rect width="84" height="84" rx="15" fill="white"></rect>
    </clipPath>
  </defs>
</svg>