<svg width="500" height="500" viewBox="0 0 84 84" fill="none" xmlns="http://www.w3.org/2000/svg">
  <g id="19400007">
    <g clip-path="url(#1002caf6)">
      <circle id="6bfd7891" cx="42" cy="42" r="42" fill="url(#48014a24)"></circle>
      <g id="edde2a60">
        <path d="M35.2734 35.1149C33.4281 33.5883 30.7617 34.9453 29.3262 33.7148C27.4075 32.0702 26.9717 31.6401 25.2195 31.1908C23.6199 30.7807 22.1716 31.7086 20.6309 29.6542C19.5234 28.1777 18.4789 28.3271 17.1424 28.6553C15.806 28.9834 15.3953 28.6202 13.5967 27.1318C12.4072 26.1474 11.3203 25.7988 8.85939 25.8808C6.78383 25.95 5.15141 25.49 3.63416 24.9138C2.17515 28.1849 1.11744 31.6729 0.534363 35.3216C6.47835 35.9455 8.26499 35.6743 10.582 36.4218C13.125 37.2421 37.8438 42.246 38.2814 41.9999C38.7189 41.7538 39.0092 37.8485 39.0092 37.8485C36.5267 37.4 36.4929 36.1237 35.2734 35.1149Z" fill="#36B294"></path>
        <path d="M35.2734 35.1149C33.4281 33.5883 30.7617 34.9453 29.3262 33.7148C27.4075 32.0702 26.9717 31.6401 25.2195 31.1908C23.6199 30.7807 22.1716 31.7086 20.6309 29.6542C19.5234 28.1777 18.4789 28.3271 17.1424 28.6553C15.806 28.9834 15.3953 28.6202 13.5967 27.1318C12.4072 26.1474 11.3203 25.7988 8.85939 25.8808C6.78383 25.95 5.15141 25.49 3.63416 24.9138C2.17515 28.1849 1.11744 31.6729 0.534363 35.3216C6.47835 35.9455 8.26499 35.6743 10.582 36.4218C13.125 37.2421 37.8438 42.246 38.2814 41.9999C38.7189 41.7538 39.0092 37.8485 39.0092 37.8485C36.5267 37.4 36.4929 36.1237 35.2734 35.1149Z" fill="#5D6583" fill-opacity="0.738227"></path>
      </g>
      <g id="4c0f764e">
        <g id="50aa9f1f">
          <path d="M69.3171 45.4482C68.8589 45.4482 68.4879 45.0771 68.4879 44.6196V35.6949C68.4879 35.2373 68.859 34.8662 69.3171 34.8662C69.7753 34.8662 70.1463 35.2373 70.1463 35.6949V44.6196C70.1463 45.0773 69.7753 45.4482 69.3171 45.4482Z" fill="#674447"></path>
          <path d="M69.3171 45.4482C68.8589 45.4482 68.4879 45.0771 68.4879 44.6196V35.6949C68.4879 35.2373 68.859 34.8662 69.3171 34.8662C69.7753 34.8662 70.1463 35.2373 70.1463 35.6949V44.6196C70.1463 45.0773 69.7753 45.4482 69.3171 45.4482Z" fill="#8588A6" fill-opacity="0.469706"></path>
        </g>
        <g id="2bec4eac">
          <path d="M74.5395 34.9346C74.5395 37.819 72.2013 40.1572 69.3169 40.1572C66.4325 40.1572 64.0943 37.819 64.0943 34.9346C64.0943 32.0502 66.4325 23.1836 69.3169 23.1836C72.2013 23.1838 74.5395 32.0502 74.5395 34.9346Z" fill="#43AB5F"></path>
          <path d="M74.5395 34.9346C74.5395 37.819 72.2013 40.1572 69.3169 40.1572C66.4325 40.1572 64.0943 37.819 64.0943 34.9346C64.0943 32.0502 66.4325 23.1836 69.3169 23.1836C72.2013 23.1838 74.5395 32.0502 74.5395 34.9346Z" fill="#A0A7C3" fill-opacity="0.398585"></path>
        </g>
        <g id="4661a8de">
          <path d="M69.3169 23.1836C68.5929 23.1836 67.9033 23.7432 67.2764 24.6259H67.2766C69.9165 24.6259 72.0566 32.7411 72.0566 35.381C72.0566 37.6774 70.4359 39.592 68.2769 40.0523C68.613 40.1203 68.9605 40.1572 69.3167 40.1572C72.2011 40.1572 74.5393 37.819 74.5393 34.9346C74.5395 32.0502 72.2011 23.1836 69.3169 23.1836Z" fill="#71BE63"></path>
          <path d="M69.3169 23.1836C68.5929 23.1836 67.9033 23.7432 67.2764 24.6259H67.2766C69.9165 24.6259 72.0566 32.7411 72.0566 35.381C72.0566 37.6774 70.4359 39.592 68.2769 40.0523C68.613 40.1203 68.9605 40.1572 69.3167 40.1572C72.2011 40.1572 74.5393 37.819 74.5393 34.9346C74.5395 32.0502 72.2011 23.1836 69.3169 23.1836Z" fill="#A0A7C3" fill-opacity="0.45"></path>
        </g>
      </g>
      <path id="1be281c4" opacity="0.299991" d="M26.9547 10.6641C26.9547 9.11505 28.2104 7.85931 29.7595 7.85931C29.9933 7.85931 30.2169 7.89623 30.4339 7.9502C31.1658 7.15975 32.2035 6.65723 33.3657 6.65723C35.5786 6.65723 37.3726 8.45125 37.3726 10.6641H26.9547Z" fill="white"></path>
      <path id="39bb8900" d="M43.2925 40.6875C42.1883 40.6875 42.0043 39.5957 41.896 39.375C40.6875 36.9141 39.2246 38.0625 36.8243 38.0625C34.9478 38.0625 34.5642 35.3281 33.5168 35.4375C32.4694 35.5469 30.7821 37.2968 29.3273 36.75C27.2398 35.9651 27.1743 34.7812 25.1377 34.125C23.3405 33.5459 21.821 33.9609 20.948 32.8125C19.2485 30.5763 18.0241 33.0176 15.3618 31.5C12.6543 29.9565 11.8123 32.8125 9.77583 32.8125C7.63629 32.8125 8.37916 30.1875 5.58616 30.1875C4.00395 30.1875 3.07141 32.1169 1.07018 32.6624C0.377836 35.6667 0 38.789 0 42C0 43.6557 0.107953 45.2857 0.296953 46.8912C0.939258 47.4872 1.63373 48.0114 2.33018 48.3105C4.82705 49.3828 57.2578 50.304 57.2578 50.304V45.9375C53.4173 45.9375 53.4173 43.3125 50.2752 43.3125C46.0418 43.3125 46.4346 40.6875 43.2925 40.6875Z" fill="#59928E"></path>
      <path id="5c59da86" d="M17.5547 71.1291L56.4375 50.304L55.4531 48.1797C46.0384 48.1797 29.7009 38.6093 0 41.9999C0 52.4617 3.83381 62.0221 10.1617 69.3747C14.1363 70.3242 17.5547 71.1291 17.5547 71.1291Z" fill="#739A8F"></path>
      <path id="645cc3ab" d="M55.4531 48.1797C46.8197 48.1797 32.3563 40.1391 7.11328 41.4182C29.5562 41.4375 43.3194 51.4839 50.3672 51.4839L52.336 50.7495L55.5117 48.3063L55.4531 48.1797Z" fill="#87ADA2"></path>
      <path id="54f51136" opacity="0.9" d="M37.5142 9.46094C37.8651 9.46094 38.2008 9.51639 38.5268 9.59744C39.6255 8.41077 40.2514 7.65625 42.9282 7.65625C45.605 7.65625 48.0734 9.88546 48.1875 12.3479C48.3016 14.8104 47.3315 15.805 39 15.805C33.717 15.805 33.717 14.1359 33.717 12.3479C33.717 10.56 35.7301 9.46094 37.5142 9.46094Z" fill="url(#4159bc4e)"></path>
      <g id="af1a7c2e">
        <path d="M3.71881 59.2732C10.3069 73.8505 24.9634 84 42 84C65.196 84 84 65.196 84 42C84 41.5617 83.9803 41.1282 83.967 40.6931C57.9948 40.8122 46.2174 59.0625 3.71881 59.0625V59.2732Z" fill="#71BE63"></path>
        <path d="M3.71881 59.2732C10.3069 73.8505 24.9634 84 42 84C65.196 84 84 65.196 84 42C84 41.5617 83.9803 41.1282 83.967 40.6931C57.9948 40.8122 46.2174 59.0625 3.71881 59.0625V59.2732Z" fill="#477468"></path>
      </g>
      <g id="97831d52">
        <g id="2358705f">
          <path d="M57.2581 50.7495C56.7382 50.7495 56.3171 50.3285 56.3171 49.8093V39.6817C56.3171 39.1624 56.7381 38.7415 57.2581 38.7415C57.7782 38.7415 58.199 39.1624 58.199 39.6817V49.8093C58.199 50.3285 57.7781 50.7495 57.2581 50.7495Z" fill="#674447"></path>
          <path d="M57.2581 50.7495C56.7382 50.7495 56.3171 50.3285 56.3171 49.8093V39.6817C56.3171 39.1624 56.7381 38.7415 57.2581 38.7415C57.7782 38.7415 58.199 39.1624 58.199 39.6817V49.8093C58.199 50.3285 57.7781 50.7495 57.2581 50.7495Z" fill="#8588A6" fill-opacity="0.469706"></path>
        </g>
        <g id="f01a88e6">
          <path d="M63.1842 38.819C63.1842 42.0921 60.5308 44.7455 57.2578 44.7455C53.9847 44.7455 51.3314 42.0921 51.3314 38.819C51.3314 35.546 53.9847 25.4844 57.2578 25.4844C60.5308 25.4844 63.1842 35.5458 63.1842 38.819Z" fill="#43AB5F"></path>
          <path d="M63.1842 38.819C63.1842 42.0921 60.5308 44.7455 57.2578 44.7455C53.9847 44.7455 51.3314 42.0921 51.3314 38.819C51.3314 35.546 53.9847 25.4844 57.2578 25.4844C60.5308 25.4844 63.1842 35.5458 63.1842 38.819Z" fill="#A0A7C3" fill-opacity="0.398585"></path>
        </g>
        <g id="53e7d872">
          <path d="M57.2578 25.4844C56.4362 25.4844 55.6538 26.1195 54.9424 27.1211H54.9425C57.9383 27.1211 60.3668 36.3299 60.3668 39.3257C60.3668 41.9315 58.5278 44.1042 56.0777 44.6267C56.4591 44.7038 56.8535 44.7456 57.2576 44.7456C60.5307 44.7456 63.1842 42.0923 63.1842 38.8192C63.1844 35.5458 60.5308 25.4844 57.2578 25.4844Z" fill="#71BE63"></path>
          <path d="M57.2578 25.4844C56.4362 25.4844 55.6538 26.1195 54.9424 27.1211H54.9425C57.9383 27.1211 60.3668 36.3299 60.3668 39.3257C60.3668 41.9315 58.5278 44.1042 56.0777 44.6267C56.4591 44.7038 56.8535 44.7456 57.2576 44.7456C60.5307 44.7456 63.1842 42.0923 63.1842 38.8192C63.1844 35.5458 60.5308 25.4844 57.2578 25.4844Z" fill="#A0A7C3" fill-opacity="0.45"></path>
        </g>
      </g>
      <path id="9ab3796e" opacity="0.800059" d="M30.7574 80.6241C30.9217 80.6039 31.072 80.7206 31.0923 80.8848L31.4576 83.8633C31.4775 84.0275 31.361 84.177 31.1968 84.1973C31.0324 84.2175 30.8821 84.1001 30.8619 83.9356L30.4966 80.9581C30.4766 80.7939 30.5933 80.6445 30.7574 80.6241ZM51.7574 80.6241C51.9217 80.6039 52.072 80.7206 52.0923 80.8848L52.4576 83.8633C52.4775 84.0275 52.361 84.177 52.1968 84.1973C52.0324 84.2175 51.8821 84.1001 51.8619 83.9356L51.4966 80.9581C51.4766 80.7939 51.5933 80.6445 51.7574 80.6241ZM13.1636 74.7784C13.328 74.7583 13.4774 74.8757 13.4976 75.0401L14.107 80.002C14.1272 80.1664 14.0105 80.3166 13.8463 80.337C13.6818 80.3572 13.5315 80.2397 13.5113 80.0753L12.9019 75.1124C12.882 74.9481 12.9993 74.7986 13.1636 74.7784ZM26.7574 67.6241C26.9217 67.6039 27.072 67.7206 27.0923 67.8848L27.4576 70.8633C27.4775 71.0275 27.361 71.177 27.1968 71.1973C27.0324 71.2175 26.8821 71.1001 26.8619 70.9356L26.4966 67.9581C26.4766 67.7939 26.5933 67.6445 26.7574 67.6241ZM39.2398 66.67C39.4042 66.6499 39.5536 66.7673 39.5738 66.9317L39.94 69.9092C39.9599 70.0735 39.8426 70.2231 39.6783 70.2432C39.5139 70.2633 39.3645 70.1459 39.3443 69.9815L38.9781 67.004C38.9581 66.8397 39.0755 66.6902 39.2398 66.67ZM76.7574 63.6241C76.9217 63.6039 77.072 63.7206 77.0923 63.8848L77.4576 66.8633C77.4775 67.0275 77.361 67.177 77.1968 67.1973C77.0324 67.2175 76.8821 67.1001 76.8619 66.9356L76.4966 63.9581C76.4766 63.7939 76.5933 63.6445 76.7574 63.6241ZM6.75739 58.6241C6.92171 58.6039 7.07197 58.7206 7.09235 58.8848L7.45758 61.8633C7.4775 62.0275 7.36103 62.177 7.19684 62.1973C7.03239 62.2175 6.88207 62.1001 6.86188 61.9356L6.49664 58.9581C6.47664 58.7939 6.59328 58.6445 6.75739 58.6241ZM54.314 55.0333C54.4265 55.0653 54.5147 55.1619 54.5298 55.2852L54.8951 58.2628C54.9153 58.4271 54.7986 58.5764 54.6343 58.5967C54.5932 58.6018 54.5527 58.5987 54.5152 58.588C54.4028 58.5558 54.3145 58.4593 54.2994 58.336L53.9341 55.3585C53.914 55.1942 54.0307 55.0449 54.1949 55.0245C54.236 55.0194 54.2766 55.0226 54.314 55.0333ZM15.7574 50.6241C15.9217 50.6039 16.072 50.7206 16.0923 50.8848L16.4576 53.8633C16.4775 54.0275 16.361 54.177 16.1968 54.1973C16.0324 54.2175 15.8821 54.1001 15.8619 53.9356L15.4966 50.9581C15.4766 50.7939 15.5933 50.6445 15.7574 50.6241ZM29.3072 48.5255C29.4716 48.5053 29.621 48.6218 29.6412 48.7862L30.2505 53.7491C30.2706 53.9134 30.154 54.0627 29.9898 54.0831C29.8254 54.1033 29.6752 53.9866 29.6548 53.8223L29.0455 48.8594C29.0253 48.695 29.1427 48.5456 29.3072 48.5255ZM1.02008 48.0323C1.18446 48.0122 1.33386 48.1286 1.35407 48.293L1.96344 53.2559C1.98354 53.4202 1.86691 53.5695 1.7027 53.5899C1.53832 53.6101 1.38804 53.4935 1.36774 53.3292L0.758362 48.3663C0.73817 48.2018 0.85563 48.0525 1.02008 48.0323ZM80.0455 48.6661C80.2098 48.6461 80.3593 48.7635 80.3795 48.9278L80.7447 51.9053C80.7648 52.0697 80.6482 52.2191 80.4839 52.2393C80.3196 52.2595 80.1704 52.1428 80.15 51.9786L79.7838 49.001C79.7636 48.8366 79.881 48.6863 80.0455 48.6661ZM41.608 44.2667C41.7723 44.2467 41.9218 44.3631 41.942 44.5274L42.3072 47.5049C42.3274 47.6693 42.2108 47.8186 42.0464 47.8389C41.882 47.8591 41.7327 47.7426 41.7125 47.5782L41.3463 44.6006C41.3261 44.4362 41.4435 44.2869 41.608 44.2667ZM9.02008 41.0323C9.18446 41.0122 9.33386 41.1286 9.35407 41.293L9.96344 46.2559C9.98354 46.4202 9.86691 46.5695 9.7027 46.5899C9.53832 46.6101 9.38804 46.4935 9.36774 46.3292L8.75836 41.3663C8.73817 41.2018 8.85563 41.0525 9.02008 41.0323ZM72.5738 42.2452C72.7382 42.225 72.8886 42.3424 72.9088 42.5069L73.0298 43.4991C73.05 43.6635 72.9335 43.8128 72.7691 43.8331C72.6047 43.8533 72.4554 43.7367 72.4351 43.5723L72.313 42.5801C72.2929 42.4157 72.4094 42.2655 72.5738 42.2452ZM52.3638 39.1524C52.4764 39.1844 52.5644 39.281 52.5797 39.4044L52.9449 42.3819C52.9651 42.5463 52.8486 42.6967 52.6841 42.7169C52.6429 42.7219 52.6026 42.7179 52.565 42.7071C52.4528 42.6749 52.3653 42.5783 52.3502 42.4551L51.9839 39.4776C51.9638 39.3132 52.0812 39.1638 52.2457 39.1436C52.2866 39.1386 52.3265 39.1418 52.3638 39.1524ZM2.66949 36.046C2.83395 36.0258 2.98329 36.1432 3.00348 36.3077L3.49176 40.2774C3.51195 40.4419 3.39449 40.5912 3.23004 40.6114C3.06565 40.6315 2.91626 40.515 2.89606 40.3506L2.40875 36.3809C2.38856 36.2165 2.5051 36.0662 2.66949 36.046ZM45.9918 35.9815C46.1562 35.9613 46.3065 36.0788 46.3267 36.2432L46.692 39.2208C46.7121 39.3852 46.5947 39.5346 46.4302 39.5547C46.266 39.5747 46.1165 39.4583 46.0963 39.294L45.731 36.3165C45.7108 36.1521 45.8274 36.0018 45.9918 35.9815ZM42.5738 30.2452C42.7382 30.225 42.8886 30.3424 42.9088 30.5069L43.0298 31.4991C43.05 31.6635 42.9335 31.8128 42.7691 31.8331C42.6047 31.8533 42.4554 31.7367 42.4351 31.5723L42.313 30.5801C42.2929 30.4157 42.4094 30.2655 42.5738 30.2452ZM58.0953 26.7852C58.2597 26.7651 58.4091 26.8825 58.4293 27.0469L58.7955 30.0245C58.8156 30.1889 58.6981 30.3383 58.5338 30.3585C58.3694 30.3786 58.2201 30.262 58.1998 30.0977L57.8336 27.1202C57.8134 26.9557 57.9308 26.8054 58.0953 26.7852ZM6.94782 24.1583C7.11227 24.1381 7.26258 24.2555 7.28278 24.42L7.89215 29.3829C7.91209 29.5472 7.79474 29.6967 7.63043 29.7169C7.46604 29.737 7.31663 29.6195 7.29645 29.4551L6.68707 24.4932C6.66689 24.3289 6.78349 24.1786 6.94782 24.1583ZM50.2955 23.2628C50.4598 23.2426 50.6091 23.3592 50.6295 23.5235L50.9957 26.501C51.0159 26.6655 50.8984 26.8158 50.7339 26.836C50.5696 26.856 50.4201 26.7386 50.4 26.5743L50.0347 23.5967C50.0146 23.4324 50.1311 23.283 50.2955 23.2628ZM70.2584 23.3868C70.4228 23.3666 70.5722 23.484 70.5923 23.6485L70.7144 24.6407C70.7346 24.8051 70.618 24.9544 70.4537 24.9747C70.2892 24.9949 70.1389 24.8784 70.1187 24.7139L69.9976 23.7217C69.9774 23.5573 70.094 23.407 70.2584 23.3868ZM40.2584 11.3868C40.4228 11.3666 40.5722 11.484 40.5923 11.6485L40.7144 12.6407C40.7346 12.8051 40.618 12.9544 40.4537 12.9747C40.2892 12.9949 40.1389 12.8784 40.1187 12.7139L39.9976 11.7217C39.9774 11.5573 40.094 11.407 40.2584 11.3868ZM17.9078 8.98151C18.0722 8.96131 18.2225 9.07877 18.2427 9.24323L18.608 12.2208C18.6281 12.385 18.5114 12.5344 18.3472 12.5547C18.1828 12.5749 18.0326 12.4584 18.0123 12.294L17.647 9.31647C17.6269 9.15212 17.7435 9.00185 17.9078 8.98151Z" fill="url(#89e62499)"></path>
      <path id="47a871eb" opacity="0.9" d="M21.7952 20.8984H28.6975C30.8238 20.8984 32.5475 19.1681 32.5475 17.0336C32.5475 14.8991 30.8238 13.1687 28.6975 13.1687C28.0558 13.1687 27.4508 13.3263 26.9188 13.605C26.178 11.448 24.1381 9.89844 21.7377 9.89844C18.7118 9.89844 16.2588 12.3609 16.2588 15.3984C16.2588 15.4607 16.2598 15.5227 16.2619 15.5845C15.3786 16.0608 14.778 16.9971 14.778 18.0741C14.778 19.6339 16.0377 20.8984 17.5915 20.8984H21.7377C21.7464 20.8984 21.7952 20.8984 21.7952 20.8984H21.7377H21.7952Z" fill="url(#de1f0c72)"></path>
    </g>
  </g>
  <defs>
    <linearGradient id="48014a24" x1="110.083" y1="70.9584" x2="84" y2="-13.0416" gradientUnits="userSpaceOnUse">
      <stop stop-color="#A098C5"></stop>
      <stop offset="1" stop-color="#A0A7C3"></stop>
    </linearGradient>
    <linearGradient id="4159bc4e" x1="37.8537" y1="0.322374" x2="28.668" y2="18.6958" gradientUnits="userSpaceOnUse">
      <stop stop-color="white"></stop>
      <stop offset="1" stop-color="white" stop-opacity="0.01"></stop>
    </linearGradient>
    <linearGradient id="89e62499" x1="17.9345" y1="9.50384" x2="22.4794" y2="52.4785" gradientUnits="userSpaceOnUse">
      <stop stop-color="#BAC1F7"></stop>
      <stop offset="1" stop-color="#F1F1F1" stop-opacity="0.501584"></stop>
    </linearGradient>
    <linearGradient id="de1f0c72" x1="18.0564" y1="-12.4888" x2="35.5129" y2="19.2684" gradientUnits="userSpaceOnUse">
      <stop stop-color="white"></stop>
      <stop offset="1" stop-color="white" stop-opacity="0.01"></stop>
    </linearGradient>
    <clipPath id="1002caf6">
      <rect width="84" height="84" rx="42" fill="white"></rect>
    </clipPath>
  </defs>
</svg>
