<svg width="84" height="84" viewBox="0 0 84 84" fill="none" xmlns="http://www.w3.org/2000/svg">
  <g id="ba18a21f">
    <g clip-path="url(#39d82534)">
      <rect width="84" height="84" rx="15" fill="url(#ff60def1)"></rect>
      <path id="680d9e32" fill-rule="evenodd" clip-rule="evenodd" d="M90.7425 48.5057C90.7425 48.5057 78.8305 40.9646 69.8332 40.9646C57.9318 40.9646 49.9746 51.2493 40.3475 51.2493C29.1276 51.2493 27.7157 48.2774 21.424 48.2774C12.5317 48.2774 0.795189 53.8502 -5.39436 51.8389C-10.3892 50.2158 -16.4024 46.9375 -16.4024 46.9375V74.4648L90.7425 76.1193V48.5057Z" fill="url(#4c220b40)"></path>
      <path id="e6a9d900" fill-rule="evenodd" clip-rule="evenodd" d="M-14.6365 66.897C-14.6365 66.897 -14.0933 49.5787 -1.77952 46.8708C8.98668 45.2604 17.2872 57.7596 26.9142 57.7596C38.1341 57.7596 43.4218 50.5057 54.3152 50.5057C62.2603 50.5057 70.0186 56.8123 80.838 54.6262C104.87 49.7706 92.5084 48.9375 92.5084 48.9375V76.4648L-14.6365 78.1193V66.897Z" fill="url(#cdbead62)"></path>
      <path id="21350dc9" fill-rule="evenodd" clip-rule="evenodd" d="M-1 68.2731C-1 68.2731 4.16911 61.326 8.22579 60.6266C12.2825 59.9272 14.5277 66.6992 14.5277 66.6992C14.5277 66.6992 16.427 66.403 17.4587 66.6992C18.4903 66.9955 19.3071 68.2731 19.3071 68.2731C19.3071 68.2731 20.6211 64.1923 26.077 64.1923C31.533 64.1923 34.3049 69.7054 34.3049 69.7054C34.3049 69.7054 36.1209 68.2731 38.0122 68.2731C39.9035 68.2731 42.0443 69.7054 42.0443 69.7054C42.0443 69.7054 43.3803 64.1923 49.0173 64.1923C54.6543 64.1923 57.0589 68.8709 57.0589 68.8709C57.0589 68.8709 59.3365 67.4338 61.5495 67.4338C63.7626 67.4338 66.4035 68.8709 66.4035 68.8709C66.4035 68.8709 67.1445 64.3319 70.441 61.6565C73.7375 58.9812 80.9149 60.6266 80.9149 60.6266L84.8409 62.6932V84.2698H-1V68.2731Z" fill="url(#09429a93)"></path>
      <circle id="68ad623a" cx="52" cy="20" r="7" fill="#FEFFCA"></circle>
    </g>
  </g>
  <defs>
    <linearGradient id="ff60def1" x1="0" y1="0" x2="0" y2="84" gradientUnits="userSpaceOnUse">
      <stop stop-color="#A2E9FF"></stop>
      <stop offset="0.552083" stop-color="#DDFDFF"></stop>
    </linearGradient>
    <linearGradient id="4c220b40" x1="90.7425" y1="40.9646" x2="90.7425" y2="76.1193" gradientUnits="userSpaceOnUse">
      <stop stop-color="#AAF3FA"></stop>
      <stop offset="1" stop-color="#D5FAFD"></stop>
    </linearGradient>
    <linearGradient id="cdbead62" x1="-14.6365" y1="46.7275" x2="-14.6365" y2="78.1193" gradientUnits="userSpaceOnUse">
      <stop stop-color="#7EDEE7"></stop>
      <stop offset="1" stop-color="#B5F1F5"></stop>
    </linearGradient>
    <linearGradient id="09429a93" x1="-1" y1="60" x2="-1" y2="84.2698" gradientUnits="userSpaceOnUse">
      <stop stop-color="#4297A8"></stop>
      <stop offset="1" stop-color="#77C8D3"></stop>
    </linearGradient>
    <clipPath id="39d82534">
      <rect width="84" height="84" rx="15" fill="white"></rect>
    </clipPath>
  </defs>
</svg>