<svg width="500" height="500" viewBox="0 0 84 84" fill="none" xmlns="http://www.w3.org/2000/svg">
  <g id="10a0c693">
    <g clip-path="url(#9f86fb31)">
      <rect width="84" height="84" rx="42" fill="url(#336f1fab)"></rect>
      <g id="d15f7c61">
        <path id="60f9a086" fill-rule="evenodd" clip-rule="evenodd" d="M39.3623 36L100.96 69.919V98.9701H-17L-16.4425 71.3204L39.3623 36Z" fill="#374C70"></path>
        <path id="c149b45f" fill-rule="evenodd" clip-rule="evenodd" d="M38.5147 38.7119L41.9801 39.5598L41.8891 37.3018L60.8087 47.7188L57.5546 47.8539L56.1868 48.8612L48.4929 44.5171L54.4067 50.1722L52.8629 51.3091L53.814 53.8948L46.9486 56.996L39.9737 50.0852L44.4612 50.9032L41.6196 46.4991L48.4929 49.6947L42.6774 44.5171L45.2955 45.3997L38.5147 38.7119Z" fill="url(#8f6752e2)"></path>
        <path id="2794a7f1" fill-rule="evenodd" clip-rule="evenodd" d="M61.5775 50.0486L63.8952 49.4475L84.4936 60.8346L81.4673 64.2157L78.2722 63.1336L80.2867 65.4508L75.3046 70.6456L68.0944 67.4851L72.2069 74.8869L59.2337 65.7035L58.8885 59.8672L55.6357 55.4273L58.672 56.2063L57.6339 51.9861L62.2406 51.4971L61.5775 50.0486Z" fill="url(#43997db2)"></path>
        <path id="9b6251c6" fill-rule="evenodd" clip-rule="evenodd" d="M34.2625 56.6531L40.7869 60.1249V57.7867L54.2597 69.6323L52.1274 64.8932L59.9986 67.485L67.7143 76.7713L61.7401 77.6203L49.6528 71.8714L55.753 78.4712L48.5514 79.4946L34.2625 66.6634V62.5842L38.5147 64.8932L34.2625 56.6531Z" fill="url(#485d4589)"></path>
        <path id="d000d284" fill-rule="evenodd" clip-rule="evenodd" d="M12.9406 57.7663L12.3448 54.616L19.0718 56.9961L25.7988 62.4762L19.0825 61.7716L12.9406 57.7663Z" fill="url(#4b514fee)"></path>
        <path id="eb9de532" fill-rule="evenodd" clip-rule="evenodd" d="M16.1502 66.515L13.9852 62.9592L19.4325 64.2376L18.5564 65.6795L16.1502 66.515Z" fill="url(#67d309b2)"></path>
        <path id="26cd67fb" fill-rule="evenodd" clip-rule="evenodd" d="M30.165 53.5557L28.2747 49.6648L33.4472 51.2783H30.165V53.5557Z" fill="url(#87c3e0f6)"></path>
        <path id="a0f3d994" fill-rule="evenodd" clip-rule="evenodd" d="M18.7409 52.1558H20.8748L19.8896 50.0852L22.7733 51.3467L25.7988 53.8214L21.9084 54.9717L18.7409 52.1558Z" fill="url(#9e69329a)"></path>
        <path id="d13ad466" opacity="0.4" fill-rule="evenodd" clip-rule="evenodd" d="M21.234 21.4252C21.1169 21.3081 21.1169 21.1181 21.234 21.001C21.3512 20.8838 21.5412 20.8838 21.6583 21.001L23.7796 23.1223C23.8968 23.2394 23.8968 23.4294 23.7796 23.5465C23.6625 23.6637 23.4725 23.6637 23.3554 23.5465L21.234 21.4252ZM31.8406 32.0318C31.7235 31.9147 31.7235 31.7247 31.8406 31.6076C31.9578 31.4904 32.1478 31.4904 32.2649 31.6076L34.3862 33.7289C34.5034 33.846 34.5034 34.036 34.3862 34.1531C34.2691 34.2703 34.0791 34.2703 33.962 34.1531L31.8406 32.0318ZM53.0539 52.8208C52.9367 52.9379 52.9367 53.1279 53.0539 53.245L55.1752 55.3663C55.2923 55.4835 55.4823 55.4835 55.5994 55.3663C55.7166 55.2492 55.7166 55.0592 55.5994 54.9421L53.4781 52.8208C53.361 52.7036 53.171 52.7036 53.0539 52.8208ZM63.6605 63.8516C63.5433 63.7345 63.5433 63.5445 63.6605 63.4274C63.7776 63.3102 63.9676 63.3102 64.0847 63.4274L66.206 65.5487C66.3232 65.6658 66.3232 65.8558 66.206 65.9729C66.0889 66.0901 65.8989 66.0901 65.7818 65.9729L63.6605 63.8516ZM74.2671 74.034C74.1499 74.1511 74.1499 74.3411 74.2671 74.4582L76.3884 76.5795C76.5055 76.6967 76.6955 76.6967 76.8126 76.5795C76.9298 76.4624 76.9298 76.2724 76.8126 76.1553L74.6913 74.034C74.5742 73.9168 74.3842 73.9168 74.2671 74.034Z" fill="white"></path>
        <path id="c8953573" opacity="0.4" fill-rule="evenodd" clip-rule="evenodd" d="M23.0209 0.212083C22.9037 0.0949259 22.9037 -0.0950236 23.0209 -0.212181C23.138 -0.329338 23.328 -0.329338 23.4451 -0.212181L25.5664 1.90914C25.6836 2.0263 25.6836 2.21625 25.5664 2.3334C25.4493 2.45056 25.2593 2.45056 25.1422 2.3334L23.0209 0.212083ZM45.6483 22.8395C45.5311 22.7223 45.5311 22.5324 45.6483 22.4152C45.7654 22.2981 45.9554 22.2981 46.0725 22.4152L48.1939 24.5366C48.311 24.6537 48.311 24.8437 48.1939 24.9608C48.0767 25.078 47.8867 25.078 47.7696 24.9608L45.6483 22.8395ZM56.962 33.7289C56.8448 33.8461 56.8448 34.036 56.962 34.1532L59.0833 36.2745C59.2005 36.3917 59.3904 36.3917 59.5076 36.2745C59.6247 36.1574 59.6247 35.9674 59.5076 35.8503L57.3862 33.7289C57.2691 33.6118 57.0791 33.6118 56.962 33.7289ZM68.2757 45.4669C68.1585 45.3498 68.1585 45.1598 68.2757 45.0427C68.3928 44.9255 68.5828 44.9255 68.6999 45.0427L70.8213 47.164C70.9384 47.2811 70.9384 47.4711 70.8213 47.5882C70.7041 47.7054 70.5142 47.7054 70.397 47.5882L68.2757 45.4669ZM79.5894 56.3564C79.4722 56.4735 79.4722 56.6635 79.5894 56.7806L81.7107 58.9019C81.8279 59.0191 82.0178 59.0191 82.135 58.9019C82.2521 58.7848 82.2521 58.5948 82.135 58.4777L80.0137 56.3564C79.8965 56.2392 79.7066 56.2392 79.5894 56.3564ZM90.9031 68.0943C90.7859 67.9772 90.7859 67.7872 90.9031 67.6701C91.0203 67.5529 91.2102 67.5529 91.3274 67.6701L93.4487 69.7914C93.5658 69.9085 93.5658 70.0985 93.4487 70.2157C93.3315 70.3328 93.1416 70.3328 93.0244 70.2157L90.9031 68.0943ZM102.217 78.9838C102.1 79.1009 102.1 79.2909 102.217 79.408L104.338 81.5294C104.455 81.6465 104.645 81.6465 104.762 81.5294C104.88 81.4122 104.88 81.2223 104.762 81.1051L102.641 78.9838C102.524 78.8666 102.334 78.8666 102.217 78.9838Z" fill="white"></path>
        <path id="4f2ed24f" opacity="0.4" fill-rule="evenodd" clip-rule="evenodd" d="M54.3346 8.5258C54.2174 8.40865 54.2174 8.2187 54.3346 8.10154C54.4517 7.98438 54.6417 7.98438 54.7588 8.10154L56.8802 10.2229C56.9973 10.34 56.9973 10.53 56.8802 10.6471C56.763 10.7643 56.573 10.7643 56.4559 10.6471L54.3346 8.5258ZM65.6483 19.8395C65.5311 19.7224 65.5311 19.5324 65.6483 19.4152C65.7654 19.2981 65.9554 19.2981 66.0725 19.4152L68.1939 21.5366C68.311 21.6537 68.311 21.8437 68.1939 21.9608C68.0767 22.078 67.8868 22.078 67.7696 21.9608L65.6483 19.8395ZM76.962 30.729C76.8448 30.8461 76.8448 31.0361 76.962 31.1532L79.0833 33.2745C79.2005 33.3917 79.3904 33.3917 79.5076 33.2745C79.6247 33.1574 79.6247 32.9674 79.5076 32.8503L77.3863 30.729C77.2691 30.6118 77.0791 30.6118 76.962 30.729Z" fill="white"></path>
        <path id="00d95a91" opacity="0.4" fill-rule="evenodd" clip-rule="evenodd" d="M0.0208514 20.2121C-0.0963059 20.0949 -0.0963059 19.905 0.0208514 19.7878C0.138009 19.6707 0.327958 19.6707 0.445115 19.7878L2.56644 21.9091C2.68359 22.0263 2.68359 22.2162 2.56644 22.3334C2.44928 22.4506 2.25933 22.4506 2.14217 22.3334L0.0208514 20.2121ZM11.3346 31.5258C11.2174 31.4086 11.2174 31.2187 11.3346 31.1015C11.4517 30.9844 11.6417 30.9844 11.7588 31.1015L13.8801 33.2228C13.9973 33.34 13.9973 33.53 13.8801 33.6471C13.763 33.7643 13.573 33.7643 13.4559 33.6471L11.3346 31.5258ZM22.6483 42.4152C22.5311 42.5324 22.5311 42.7223 22.6483 42.8395L24.7696 44.9608C24.8867 45.078 25.0767 45.078 25.1939 44.9608C25.311 44.8437 25.311 44.6537 25.1939 44.5366L23.0725 42.4152C22.9554 42.2981 22.7654 42.2981 22.6483 42.4152ZM33.962 54.1532C33.8448 54.036 33.8448 53.8461 33.962 53.7289C34.0791 53.6118 34.2691 53.6118 34.3862 53.7289L36.5076 55.8503C36.6247 55.9674 36.6247 56.1574 36.5076 56.2745C36.3904 56.3917 36.2005 56.3917 36.0833 56.2745L33.962 54.1532ZM45.2757 65.0427C45.1585 65.1598 45.1585 65.3498 45.2757 65.4669L47.397 67.5882C47.5142 67.7054 47.7041 67.7054 47.8213 67.5882C47.9384 67.4711 47.9384 67.2811 47.8213 67.164L45.6999 65.0427C45.5828 64.9255 45.3928 64.9255 45.2757 65.0427ZM67.9031 88.0943C67.7859 87.9772 67.7859 87.7872 67.9031 87.6701C68.0203 87.5529 68.2102 87.5529 68.3274 87.6701L70.4487 89.7914C70.5658 89.9085 70.5658 90.0985 70.4487 90.2157C70.3315 90.3328 70.1416 90.3328 70.0244 90.2157L67.9031 88.0943ZM79.2168 98.9838C79.0997 99.1009 79.0997 99.2909 79.2168 99.408L81.3381 101.529C81.4553 101.647 81.6452 101.647 81.7624 101.529C81.8796 101.412 81.8796 101.222 81.7624 101.105L79.6411 98.9838C79.5239 98.8666 79.334 98.8666 79.2168 98.9838Z" fill="white"></path>
        <path id="18c308df" opacity="0.4" fill-rule="evenodd" clip-rule="evenodd" d="M12.0417 50.2328C11.9245 50.1157 11.9245 49.9257 12.0417 49.8086C12.1588 49.6914 12.3488 49.6914 12.4659 49.8086L16.0015 53.3441C16.1186 53.4613 16.1186 53.6512 16.0015 53.7684C15.8843 53.8855 15.6944 53.8855 15.5772 53.7684L12.0417 50.2328ZM24.0625 62.2536C23.9453 62.1365 23.9453 61.9465 24.0625 61.8294C24.1796 61.7122 24.3696 61.7122 24.4867 61.8294L28.0223 65.3649C28.1394 65.4821 28.1394 65.672 28.0223 65.7892C27.9051 65.9063 27.7152 65.9063 27.598 65.7892L24.0625 62.2536ZM48.1041 85.871C47.987 85.9882 47.987 86.1781 48.1041 86.2953L51.6396 89.8308C51.7568 89.948 51.9468 89.948 52.0639 89.8308C52.1811 89.7137 52.1811 89.5237 52.0639 89.4066L48.5284 85.871C48.4112 85.7539 48.2213 85.7539 48.1041 85.871ZM60.1249 98.3161C60.0078 98.1989 60.0078 98.009 60.1249 97.8918C60.2421 97.7747 60.432 97.7747 60.5492 97.8918L64.0847 101.427C64.2019 101.545 64.2019 101.734 64.0847 101.852C63.9676 101.969 63.7776 101.969 63.6605 101.852L60.1249 98.3161ZM72.1457 109.913C72.0286 110.03 72.0286 110.22 72.1457 110.337L75.6813 113.872C75.7984 113.99 75.9884 113.99 76.1055 113.872C76.2227 113.755 76.2227 113.565 76.1055 113.448L72.57 109.913C72.4528 109.795 72.2629 109.795 72.1457 109.913Z" fill="white"></path>
        <path id="517c63f1" opacity="0.4" d="M11.3346 59.5258C11.2174 59.4086 11.2174 59.2187 11.3346 59.1015C11.4517 58.9844 11.6417 58.9844 11.7588 59.1015L14.5873 61.93C14.7044 62.0471 14.7044 62.2371 14.5873 62.3542C14.4701 62.4714 14.2802 62.4714 14.163 62.3542L11.3346 59.5258Z" fill="white"></path>
        <path id="e989b491" opacity="0.4" fill-rule="evenodd" clip-rule="evenodd" d="M40.0209 0.787819C39.9037 0.904976 39.9037 1.09493 40.0209 1.21208L45.6777 6.86894C45.7949 6.98609 45.9848 6.98609 46.102 6.86894C46.2191 6.75178 46.2191 6.56183 46.102 6.44467L40.4451 0.787819C40.328 0.670662 40.138 0.670662 40.0209 0.787819ZM63.3554 29.1223C63.2382 29.2395 63.2382 29.4295 63.3554 29.5466L69.0122 35.2035C69.1294 35.3206 69.3193 35.3206 69.4365 35.2035C69.5537 35.0863 69.5537 34.8964 69.4365 34.7792L63.7796 29.1223C63.6625 29.0052 63.4725 29.0052 63.3554 29.1223Z" fill="white"></path>
        <path id="549ba5ec" opacity="0.4" fill-rule="evenodd" clip-rule="evenodd" d="M61.4558 10.2229C61.3387 10.34 61.3387 10.53 61.4558 10.6471L62.163 11.3542C62.2801 11.4714 62.4701 11.4714 62.5872 11.3542C62.7044 11.2371 62.7044 11.0471 62.5872 10.93L61.8801 10.2229C61.763 10.1057 61.573 10.1057 61.4558 10.2229ZM74.8909 23.6579C74.7737 23.7751 74.7737 23.965 74.8909 24.0822L75.598 24.7893C75.7151 24.9064 75.9051 24.9064 76.0222 24.7893C76.1394 24.6721 76.1394 24.4822 76.0222 24.365L75.3151 23.6579C75.198 23.5407 75.008 23.5407 74.8909 23.6579Z" fill="white"></path>
        <path id="8f38de8d" opacity="0.4" fill-rule="evenodd" clip-rule="evenodd" d="M34.1127 22.3039C33.9956 22.1867 33.9956 21.9968 34.1127 21.8796C34.2299 21.7625 34.4198 21.7625 34.537 21.8796L41.6081 28.9507C41.7252 29.0678 41.7252 29.2578 41.6081 29.3749C41.4909 29.4921 41.3009 29.4921 41.1838 29.3749L34.1127 22.3039ZM8.08787 40.512C7.97071 40.3948 7.97071 40.2049 8.08787 40.0877C8.20503 39.9706 8.39497 39.9706 8.51213 40.0877L15.5832 47.1588C15.7004 47.276 15.7004 47.4659 15.5832 47.5831C15.466 47.7002 15.2761 47.7002 15.1589 47.5831L8.08787 40.512ZM70.2965 58.0634C70.1793 58.1805 70.1793 58.3705 70.2965 58.4876L77.3676 65.5587C77.4847 65.6759 77.6747 65.6759 77.7918 65.5587C77.909 65.4416 77.909 65.2516 77.7918 65.1344L70.7208 58.0634C70.6036 57.9462 70.4136 57.9462 70.2965 58.0634Z" fill="white"></path>
        <path id="5d338720" opacity="0.9" d="M26.9683 22.0971H36.679C39.6706 22.0971 42.0957 19.6591 42.0957 16.6516C42.0957 13.6442 39.6706 11.2061 36.679 11.2061C35.7763 11.2061 34.9251 11.4281 34.1766 11.8208C33.1343 8.78167 30.2645 6.59839 26.8874 6.59839C22.6302 6.59839 19.179 10.0679 19.179 14.3478C19.179 14.4355 19.1805 14.5229 19.1834 14.6099C17.9406 15.2811 17.0957 16.6002 17.0957 18.1177C17.0957 20.3155 18.8679 22.0971 21.054 22.0971H26.8874C26.8995 22.0971 26.9683 22.0971 26.9683 22.0971H26.8874H26.9683Z" fill="url(#00bf2575)"></path>
        <path id="41ef7a3e" opacity="0.6" d="M11.1127 20.3039C10.9956 20.1867 10.9956 19.9968 11.1127 19.8796C11.2299 19.7625 11.4198 19.7625 11.537 19.8796L18.608 26.9507C18.7252 27.0678 18.7252 27.2578 18.608 27.3749C18.4909 27.4921 18.3009 27.4921 18.1838 27.3749L11.1127 20.3039Z" fill="white"></path>
        <path id="6f795adb" opacity="0.120554" d="M50.0879 35.5121C49.9707 35.395 49.9707 35.205 50.0879 35.0879C50.205 34.9707 50.395 34.9707 50.5121 35.0879L52.6335 37.2092C52.7506 37.3263 52.7506 37.5163 52.6335 37.6335C52.5163 37.7506 52.3263 37.7506 52.2092 37.6335L50.0879 35.5121Z" fill="white"></path>
        <path id="3503503b" opacity="0.5" d="M43.962 11.1532C43.8448 11.0361 43.8448 10.8461 43.962 10.729C44.0791 10.6118 44.2691 10.6118 44.3862 10.729L46.5075 12.8503C46.6247 12.9675 46.6247 13.1574 46.5075 13.2746C46.3904 13.3917 46.2004 13.3917 46.0833 13.2746L43.962 11.1532Z" fill="white"></path>
      </g>
    </g>
  </g>
  <defs>
    <linearGradient id="336f1fab" x1="90.7616" y1="84" x2="90.7616" y2="-7.3985" gradientUnits="userSpaceOnUse">
      <stop stop-color="#6E7C84"></stop>
      <stop offset="1" stop-color="#668BA7"></stop>
    </linearGradient>
    <linearGradient id="8f6752e2" x1="31.0235" y1="43.6765" x2="43.3179" y2="61.3762" gradientUnits="userSpaceOnUse">
      <stop stop-color="#5B8189"></stop>
      <stop offset="1" stop-color="#A5BABD"></stop>
    </linearGradient>
    <linearGradient id="43997db2" x1="45.9389" y1="57.6819" x2="61.8082" y2="80.576" gradientUnits="userSpaceOnUse">
      <stop stop-color="#5B8189"></stop>
      <stop offset="1" stop-color="#A5BABD"></stop>
    </linearGradient>
    <linearGradient id="485d4589" x1="23.022" y1="64.0466" x2="35.7054" y2="87.6697" gradientUnits="userSpaceOnUse">
      <stop stop-color="#5B8189"></stop>
      <stop offset="1" stop-color="#A5BABD"></stop>
    </linearGradient>
    <linearGradient id="4b514fee" x1="7.82406" y1="57.1602" x2="11.7966" y2="65.8078" gradientUnits="userSpaceOnUse">
      <stop stop-color="#5B8189"></stop>
      <stop offset="1" stop-color="#A5BABD"></stop>
    </linearGradient>
    <linearGradient id="67d309b2" x1="12.1549" y1="64.1102" x2="14.0794" y2="67.8598" gradientUnits="userSpaceOnUse">
      <stop stop-color="#5B8189"></stop>
      <stop offset="1" stop-color="#A5BABD"></stop>
    </linearGradient>
    <linearGradient id="87c3e0f6" x1="26.5366" y1="50.9242" x2="28.8082" y2="54.7647" gradientUnits="userSpaceOnUse">
      <stop stop-color="#5B8189"></stop>
      <stop offset="1" stop-color="#A5BABD"></stop>
    </linearGradient>
    <linearGradient id="9e69329a" x1="16.3693" y1="51.6669" x2="19.1033" y2="56.689" gradientUnits="userSpaceOnUse">
      <stop stop-color="#5B8189"></stop>
      <stop offset="1" stop-color="#A5BABD"></stop>
    </linearGradient>
    <linearGradient id="00bf2575" x1="21.708" y1="-24.9447" x2="46.3233" y2="19.7698" gradientUnits="userSpaceOnUse">
      <stop stop-color="white"></stop>
      <stop offset="1" stop-color="white" stop-opacity="0.01"></stop>
    </linearGradient>
    <clipPath id="9f86fb31">
      <rect width="84" height="84" rx="42" fill="white"></rect>
    </clipPath>
  </defs>
</svg>
