<svg width="500" height="500" viewBox="0 0 84 84" fill="none" xmlns="http://www.w3.org/2000/svg">
  <g id="c9d518e8">
    <g clip-path="url(#75e2640c)">
      <rect width="84" height="84" rx="42" fill="url(#e8fb7474)"></rect>
      <g id="dd7ce81f">
        <path id="6051dfb8" fill-rule="evenodd" clip-rule="evenodd" d="M65.3537 71.7987H57.0666V63.0192H52.6327V55.6438H51.4084V43.5298C51.4084 43.2372 51.1713 43 50.8787 43C50.5861 43 50.3489 43.2372 50.3489 43.5298V55.6438H49.1184V63.0192H44.6846V71.7987H36.4606V94.8619H34.7512H67H65.3537V71.7987Z" fill="#111125"></path>
        <path id="6a2e2504" fill-rule="evenodd" clip-rule="evenodd" d="M41 81.8875H43V75H41V81.8875Z" fill="#AD9657"></path>
        <path id="8f31bf62" fill-rule="evenodd" clip-rule="evenodd" d="M50 81.8875H52V75H50V81.8875Z" fill="#AD9657"></path>
        <path id="a0849d01" fill-rule="evenodd" clip-rule="evenodd" d="M59 81.8875H61V75H59V81.8875Z" fill="#AD9657"></path>
        <path id="42fc2b79" opacity="0.4" fill-rule="evenodd" clip-rule="evenodd" d="M17.3011 19.301C17.1839 19.4182 17.1839 19.6081 17.3011 19.7253L19.4224 21.8466C19.5395 21.9637 19.7295 21.9637 19.8466 21.8466C19.9638 21.7294 19.9638 21.5395 19.8466 21.4223L17.7253 19.301C17.6082 19.1838 17.4182 19.1838 17.3011 19.301ZM46.1209 46.1208C46.0037 46.238 46.0037 46.4279 46.1209 46.5451L48.2422 48.6664C48.3593 48.7836 48.5493 48.7836 48.6665 48.6664C48.7836 48.5492 48.7836 48.3593 48.6665 48.2421L46.5451 46.1208C46.428 46.0037 46.238 46.0037 46.1209 46.1208Z" fill="white"></path>
        <path id="303e9ece" opacity="0.4" fill-rule="evenodd" clip-rule="evenodd" d="M38.7152 15.7153C38.5981 15.8325 38.5981 16.0224 38.7152 16.1396L40.8366 18.2609C40.9537 18.3781 41.1437 18.3781 41.2608 18.2609C41.378 18.1437 41.378 17.9538 41.2608 17.8366L39.1395 15.7153C39.0224 15.5982 38.8324 15.5982 38.7152 15.7153ZM50.029 27.029C49.9118 27.1462 49.9118 27.3361 50.029 27.4533L52.1503 29.5746C52.2674 29.6918 52.4574 29.6918 52.5745 29.5746C52.6917 29.4574 52.6917 29.2675 52.5745 29.1503L50.4532 27.029C50.3361 26.9119 50.1461 26.9119 50.029 27.029ZM53.3427 42.767C53.2255 42.6498 53.2255 42.4599 53.3427 42.3427C53.4598 42.2256 53.6498 42.2256 53.7669 42.3427L55.8882 44.464C56.0054 44.5812 56.0054 44.7712 55.8882 44.8883C55.7711 45.0055 55.5811 45.0055 55.464 44.8883L53.3427 42.767ZM72.6564 49.6564C72.5392 49.7736 72.5392 49.9635 72.6564 50.0807L74.7777 52.202C74.8949 52.3192 75.0848 52.3192 75.202 52.202C75.3191 52.0849 75.3191 51.8949 75.202 51.7778L73.0806 49.6564C72.9635 49.5393 72.7735 49.5393 72.6564 49.6564Z" fill="white"></path>
        <path id="dfd7e114" opacity="0.4" fill-rule="evenodd" clip-rule="evenodd" d="M47.4016 1.82585C47.2844 1.7087 47.2844 1.51875 47.4016 1.40159C47.5187 1.28443 47.7087 1.28443 47.8259 1.40159L49.9472 3.52291C50.0643 3.64007 50.0643 3.83002 49.9472 3.94717C49.83 4.06433 49.6401 4.06433 49.5229 3.94717L47.4016 1.82585ZM58.7153 13.1396C58.5981 13.0224 58.5981 12.8325 58.7153 12.7153C58.8325 12.5981 59.0224 12.5981 59.1396 12.7153L61.2609 14.8366C61.378 14.9538 61.378 15.1437 61.2609 15.2609C61.1437 15.378 60.9538 15.378 60.8366 15.2609L58.7153 13.1396ZM70.029 24.029C69.9118 24.1462 69.9118 24.3361 70.029 24.4533L72.1503 26.5746C72.2675 26.6917 72.4574 26.6917 72.5746 26.5746C72.6917 26.4574 72.6917 26.2675 72.5746 26.1503L70.4533 24.029C70.3361 23.9118 70.1462 23.9118 70.029 24.029Z" fill="white"></path>
        <path id="9cbcf659" opacity="0.4" fill-rule="evenodd" clip-rule="evenodd" d="M15.7152 36.1396C15.5981 36.0224 15.5981 35.8325 15.7152 35.7153C15.8324 35.5982 16.0224 35.5982 16.1395 35.7153L18.2608 37.8366C18.378 37.9538 18.378 38.1437 18.2608 38.2609C18.1437 38.3781 17.9537 38.3781 17.8366 38.2609L15.7152 36.1396ZM35.029 47.4533C34.9118 47.3361 34.9118 47.1462 35.029 47.029C35.1461 46.9119 35.3361 46.9119 35.4532 47.029L37.5745 49.1503C37.6917 49.2675 37.6917 49.4574 37.5745 49.5746C37.4574 49.6918 37.2674 49.6918 37.1503 49.5746L35.029 47.4533ZM38.3427 58.3427C38.2255 58.4599 38.2255 58.6498 38.3427 58.767L40.464 60.8883C40.5811 61.0055 40.7711 61.0055 40.8882 60.8883C41.0054 60.7712 41.0054 60.5812 40.8882 60.464L38.7669 58.3427C38.6498 58.2256 38.4598 58.2256 38.3427 58.3427Z" fill="white"></path>
        <path id="81fa5f62" opacity="0.4" fill-rule="evenodd" clip-rule="evenodd" d="M5.10868 43.1086C4.99152 43.2258 4.99152 43.4157 5.10868 43.5329L8.64421 47.0684C8.76137 47.1856 8.95132 47.1856 9.06848 47.0684C9.18564 46.9513 9.18564 46.7613 9.06848 46.6442L5.53295 43.1086C5.41579 42.9915 5.22584 42.9915 5.10868 43.1086ZM22.1295 51.1294C22.0123 51.2466 22.0123 51.4365 22.1295 51.5537L25.665 55.0892C25.7822 55.2064 25.9721 55.2064 26.0893 55.0892C26.2065 54.9721 26.2065 54.7821 26.0893 54.665L22.5538 51.1294C22.4366 51.0123 22.2467 51.0123 22.1295 51.1294Z" fill="white"></path>
        <path id="ad12c317" opacity="0.4" d="M4.40159 52.8259C4.28443 52.7087 4.28443 52.5187 4.40159 52.4016C4.51875 52.2844 4.7087 52.2844 4.82585 52.4016L7.65428 55.23C7.77144 55.3472 7.77144 55.5371 7.65428 55.6543C7.53712 55.7714 7.34717 55.7714 7.23002 55.6543L4.40159 52.8259Z" fill="white"></path>
        <path id="127bd660" opacity="0.4" fill-rule="evenodd" clip-rule="evenodd" d="M54.5229 3.52293C54.4057 3.64008 54.4057 3.83003 54.5229 3.94719L55.23 4.6543C55.3472 4.77145 55.5371 4.77145 55.6543 4.6543C55.7714 4.53714 55.7714 4.34719 55.6543 4.23003L54.9472 3.52293C54.83 3.40577 54.6401 3.40577 54.5229 3.52293ZM67.9579 16.958C67.8408 17.0751 67.8408 17.2651 67.9579 17.3822L68.665 18.0893C68.7822 18.2065 68.9721 18.2065 69.0893 18.0893C69.2065 17.9722 69.2065 17.7822 69.0893 17.6651L68.3822 16.958C68.265 16.8408 68.0751 16.8408 67.9579 16.958Z" fill="white"></path>
        <path id="cb2e48c5" opacity="0.4" fill-rule="evenodd" clip-rule="evenodd" d="M27.1797 9.60393C27.0626 9.48677 27.0626 9.29682 27.1797 9.17966C27.2969 9.06251 27.4868 9.06251 27.604 9.17966L34.6751 16.2507C34.7922 16.3679 34.7922 16.5578 34.6751 16.675C34.5579 16.7922 34.368 16.7922 34.2508 16.675L27.1797 9.60393ZM1.15488 33.812C1.03773 33.6949 1.03773 33.5049 1.15488 33.3878C1.27204 33.2706 1.46199 33.2706 1.57915 33.3878L8.65022 40.4588C8.76737 40.576 8.76737 40.766 8.65022 40.8831C8.53306 41.0003 8.34311 41.0003 8.22595 40.8831L1.15488 33.812ZM63.3635 51.3634C63.2463 51.4806 63.2463 51.6705 63.3635 51.7877L68.5924 56.8831C68.7096 57.0002 68.8996 57.0002 69.0167 56.8831C69.1339 56.7659 69.1339 56.5759 69.0167 56.4588L63.7878 51.3634C63.6706 51.2463 63.4807 51.2463 63.3635 51.3634Z" fill="white"></path>
        <path id="b86e8dfd" opacity="0.6" d="M4.17973 13.6039C4.06257 13.4868 4.06257 13.2968 4.17973 13.1797C4.29688 13.0625 4.48683 13.0625 4.60399 13.1797L11.6751 20.2507C11.7922 20.3679 11.7922 20.5578 11.6751 20.675C11.5579 20.7922 11.368 20.7922 11.2508 20.675L4.17973 13.6039Z" fill="white"></path>
        <path id="ebf41a45" opacity="0.120554" d="M43.1549 28.8122C43.0377 28.695 43.0377 28.5051 43.1549 28.3879C43.272 28.2708 43.462 28.2708 43.5791 28.3879L45.7005 30.5092C45.8176 30.6264 45.8176 30.8163 45.7005 30.9335C45.5833 31.0507 45.3934 31.0507 45.2762 30.9335L43.1549 28.8122Z" fill="white"></path>
        <path id="5fc4f768" opacity="0.5" d="M37.029 4.45329C36.9118 4.33614 36.9118 4.14619 37.029 4.02903C37.1461 3.91187 37.3361 3.91187 37.4532 4.02903L39.5746 6.15035C39.6917 6.26751 39.6917 6.45746 39.5746 6.57461C39.4574 6.69177 39.2674 6.69177 39.1503 6.57461L37.029 4.45329Z" fill="white"></path>
        <path id="6079f17b" opacity="0.5" d="M56.4224 22.8466C56.3052 22.7294 56.3052 22.5395 56.4224 22.4223C56.5395 22.3052 56.7295 22.3052 56.8466 22.4223L62.5035 28.0792C62.6206 28.1964 62.6206 28.3863 62.5035 28.5035C62.3863 28.6206 62.1964 28.6206 62.0792 28.5035L56.4224 22.8466Z" fill="white"></path>
        <path id="1bd34a35" fill-rule="evenodd" clip-rule="evenodd" d="M32.9659 25.7305C34.1868 28.4065 35.1033 30.1068 35.7357 30.8555C36.4076 31.651 37.4822 31.7095 38.9025 31.0968C39.2501 32.261 39.3824 33.1359 39.3057 33.7077C39.215 34.3841 39.0417 35.2805 38.7859 36.3951L38.6811 36.8518L39.1443 36.7943C39.9701 36.6918 40.434 36.8164 40.5916 37.1035C40.7921 37.4686 40.8992 38.5568 40.8816 40.298L40.8775 40.701L41.2713 40.6232C42.4924 40.382 43.413 40.0254 44.035 39.5435C44.4299 39.2375 44.8004 38.8419 45.1474 38.3574C45.2483 39.265 45.4873 39.9783 45.8716 40.4971C46.4299 41.2507 47.1468 41.4889 47.9406 41.1647L48.1263 41.0888L48.143 40.8882C48.2098 40.0859 48.3821 39.6634 48.575 39.591C48.7843 39.5124 48.865 39.3783 48.9847 39.075L49.0221 38.9796C49.079 38.8357 49.118 38.7646 49.143 38.7434C49.1382 38.7474 49.1404 38.7507 49.2143 38.7946C49.194 38.7826 49.2311 38.8395 49.2895 38.9289C49.3177 38.9723 49.351 39.0233 49.3852 39.0779C49.5313 39.3112 49.7333 39.653 49.9906 40.1021L50.088 40.272L50.2832 40.2664C51.3369 40.2358 52.1674 39.9993 52.7689 39.5462C53.3587 39.102 53.9439 38.285 54.54 37.0922C54.7727 36.6348 54.9781 36.3734 55.1117 36.3139C55.283 36.2377 55.3746 36.3227 55.5767 36.7716C55.5801 36.7792 55.59 36.8015 55.6024 36.8295C55.627 36.8846 55.6613 36.9618 55.6747 36.9913C55.8467 37.369 55.9725 37.5499 56.2252 37.6236C56.8446 37.8042 57.6405 37.7172 58.6204 37.3767C58.9077 38.4109 59.2045 39.1122 59.5279 39.4957C59.9095 39.9482 60.5198 40.1995 61.3414 40.2655L61.4635 40.252L63.0956 39.7472C63.0476 40.2994 63.0697 40.8686 63.1615 41.4544L63.1875 41.6196L63.3358 41.6956C63.6995 41.8818 63.7855 42.1473 63.7328 42.7148C63.7267 42.7803 63.7202 42.8392 63.7071 42.951C63.61 43.7783 63.6431 44.1101 64.0522 44.4183C64.6523 44.8705 65.4599 44.8705 66.4427 44.4586L66.5219 44.4112C67.1024 43.9412 67.5022 43.769 67.6695 43.8316C67.849 43.8987 68.0848 44.3224 68.2983 45.1018L68.4378 45.6113L68.8306 45.2596C69.449 44.7059 69.9865 44.8197 70.618 45.6884C71.3858 46.7445 72.7345 47.8448 74.6656 49.0001C74.6656 49.0001 71.8525 46.274 71.1457 45.3017C70.4214 44.3055 69.5998 44.0128 68.7917 44.4791C68.5533 43.777 68.2705 43.3564 67.8975 43.2169C67.4463 43.0481 66.8799 43.286 66.1491 43.8706C65.3811 44.1841 64.8231 44.179 64.4442 43.8936C64.3055 43.789 64.2876 43.6095 64.3558 43.0278C64.3695 42.9109 64.3765 42.848 64.3832 42.7757C64.4518 42.0365 64.3147 41.5348 63.7843 41.1977C63.6974 40.5518 63.7048 39.9326 63.8061 39.3392L63.8959 38.8132L61.3322 39.6062C60.7026 39.5467 60.2726 39.3637 60.0265 39.0718C59.7495 38.7433 59.4527 38.0002 59.1594 36.8629L59.0674 36.506L58.7251 36.6393C57.7086 37.0352 56.9326 37.1468 56.4074 36.9936C56.4105 36.9945 56.4041 36.9831 56.3904 36.9585C56.3673 36.9172 56.3235 36.8387 56.2688 36.7184C56.2569 36.6924 56.2252 36.6211 56.2009 36.5665C56.1873 36.5359 56.1761 36.5106 56.1719 36.5015C55.8368 35.7568 55.485 35.4303 54.8471 35.7142C54.5367 35.8523 54.2545 36.2116 53.9572 36.7959C53.4013 37.9081 52.8698 38.6502 52.377 39.0214C51.93 39.3581 51.2917 39.5546 50.4577 39.6024C49.9296 38.6848 49.6946 38.3179 49.5473 38.2303C49.2518 38.0545 48.9659 38.0475 48.7387 38.2281C48.5925 38.3445 48.5149 38.4848 48.4149 38.7375L48.3773 38.8335C48.3684 38.856 48.3602 38.876 48.353 38.8932C48.3247 38.9616 48.3134 38.9889 48.3462 38.9766C47.8714 39.1549 47.6163 39.7098 47.5132 40.6175C47.0899 40.7248 46.7359 40.5648 46.3958 40.1056C45.9717 39.5331 45.7488 38.6006 45.7451 37.3076L45.7414 36.0444L45.1326 37.1499C44.6734 37.9838 44.1733 38.6078 43.636 39.0241C43.1695 39.3855 42.4694 39.6782 41.5368 39.8955C41.5357 38.2708 41.4197 37.253 41.1637 36.7868C40.8922 36.2923 40.3333 36.0786 39.5209 36.106C39.7276 35.1723 39.8717 34.4025 39.9531 33.7953C40.0533 33.0479 39.8712 31.97 39.4152 30.5432C39.3548 30.3539 39.1402 30.2613 38.9616 30.3483C37.6068 31.0085 36.7215 31.0085 36.2339 30.4312C35.6582 29.7495 34.7697 28.1044 33.5881 25.5193C33.53 22.4981 33.3249 20.9006 32.8659 20.4879C32.5191 20.1761 31.9514 19.847 31.1563 19.4918C31.4629 18.1462 31.5143 17.1546 31.2823 16.5019C31.2113 16.2702 31.1074 16.078 30.9694 15.9246C30.5396 15.4472 29.7942 15.1435 28.7858 14.9437C28.3922 14.8657 27.9828 14.8082 27.5126 14.7583C27.4579 14.7525 27.3356 14.7406 27.1992 14.7273C26.9758 14.7054 26.7148 14.6799 26.6518 14.6718C26.6237 14.6681 26.6006 14.6647 26.5824 14.6616C25.6613 14.5017 25.0353 14.4562 23.5563 14.3987C22.3806 14.353 21.9369 14.2934 21.7061 14.1273C21.4854 13.9684 21.3684 13.8287 21.3424 13.6364C21.3363 13.4223 21.4269 13.1425 21.5998 12.7164C21.8177 12.1796 21.8996 11.9087 21.9035 11.5626C21.9045 11.4805 21.8994 11.3998 21.888 11.3202C21.8773 11.222 21.8571 11.1257 21.8268 11.0311C21.452 9.86197 20.9784 9.8374 21.0656 10.6214C21.0807 10.7985 21.126 11.0208 21.21 11.2839C21.2249 11.3307 21.2355 11.3786 21.2418 11.428C21.2434 11.4521 21.244 11.4766 21.2437 11.5015C21.2411 11.7342 21.1754 11.9506 20.9893 12.4072C20.7666 12.9537 20.6491 13.3625 20.6783 13.7047C20.6901 14.1051 20.8875 14.4135 21.3309 14.7339C21.7179 15.0135 22.1913 15.0773 23.5414 15.13C24.995 15.1868 25.6029 15.2311 26.4881 15.3854C26.5166 15.3904 26.5488 15.3951 26.5855 15.3999C26.6595 15.4095 26.9461 15.4376 27.1769 15.4603C27.3046 15.4728 27.4153 15.4837 27.4633 15.4888C27.9167 15.537 28.3089 15.5924 28.6814 15.6665C29.5641 15.8421 30.2005 16.1024 30.5109 16.4486C30.841 16.8167 30.4262 19.3802 30.3553 19.8024L30.3421 19.8549L30.346 19.8566C30.3455 19.8596 30.3452 19.8612 30.3452 19.8612C30.6106 20.9473 30.7012 21.6128 30.5036 21.8489C30.5309 21.8162 30.4771 21.808 30.3145 21.7832C30.2733 21.7769 30.2252 21.7696 30.1697 21.7605C29.7851 21.6977 29.5374 21.6825 29.2547 21.7344L29.2375 21.7377C28.9287 21.7977 28.5458 22.0484 28.0497 22.4909L27.9711 22.561L27.9475 22.6642C27.7612 23.4816 27.7612 24.0282 28.0083 24.3482C28.1851 24.5773 28.4968 24.8078 28.9491 25.0536C28.7702 26.714 28.7789 27.9424 28.9821 28.7525C29.1902 29.5824 29.6768 30.2798 30.4307 30.8378C30.4391 31.4104 30.3762 31.7722 30.2764 31.896C30.1194 32.0908 29.8045 32.3819 29.338 32.7595L29.209 32.864L29.2159 33.0307C29.266 34.2349 29.6718 34.9345 30.4624 34.9722C30.4872 35.0506 30.506 35.1784 30.5291 35.4167C30.6231 36.3842 30.6764 36.7228 30.8918 37.3244C31.0271 37.7024 31.4899 38.0337 32.2923 38.3913C33.5618 38.8342 33.6513 39.2212 32.7154 39.9558C32.1643 40.3884 32.1269 40.8492 32.291 42.0673C32.3281 42.3425 32.3453 42.4882 32.3573 42.6502C32.3687 42.8033 32.3719 42.9407 32.366 43.0687C32.3502 43.4117 32.2582 45.0001 32.2582 45.0001C32.3984 44.5646 32.5019 44.2534 32.5805 44.0173C32.7579 43.4836 32.8078 43.3337 32.8659 43.0001C32.8917 42.8516 32.8698 42.6128 32.8443 42.3355C32.7872 41.7142 32.7124 40.8999 33.1176 40.4767C34.4419 39.0935 34.2451 38.3737 32.5315 37.7774C31.9143 37.5011 31.5605 37.2478 31.5077 37.1003C31.3172 36.5683 31.2693 36.2644 31.1808 35.3524C31.1069 34.5917 31.0069 34.3136 30.5305 34.3136C30.1631 34.3136 29.9374 33.9786 29.8793 33.1669C30.3085 32.813 30.6086 32.5306 30.7845 32.3124C31.026 32.0128 31.11 31.4712 31.081 30.6522L31.0751 30.4856L30.9384 30.3915C30.2329 29.9056 29.7968 29.3082 29.6169 28.5907C29.4286 27.8401 29.4286 26.6058 29.6247 24.9036L29.651 24.6746L29.4469 24.5708C28.9633 24.3249 28.653 24.1087 28.5249 23.9428C28.4464 23.841 28.442 23.4862 28.5629 22.9154C28.9357 22.5915 29.2126 22.4148 29.3614 22.3858L29.372 22.3838C29.5615 22.3491 29.7493 22.3606 30.065 22.4121C30.6949 22.515 30.8003 22.5179 31.004 22.2746C31.3286 21.8869 31.3766 21.213 31.1899 20.2289C31.769 20.504 32.1837 20.7551 32.4301 20.9766C32.68 21.2013 32.8852 22.8238 32.9363 25.5999L32.9659 25.7305Z" fill="url(#df1a1d3e)"></path>
      </g>
    </g>
  </g>
  <defs>
    <linearGradient id="e8fb7474" x1="126" y1="42" x2="42" y2="-42" gradientUnits="userSpaceOnUse">
      <stop stop-color="#253363"></stop>
      <stop offset="1" stop-color="#5A79E8"></stop>
    </linearGradient>
    <linearGradient id="df1a1d3e" x1="-15.9378" y1="18.1878" x2="17.8515" y2="75.0238" gradientUnits="userSpaceOnUse">
      <stop stop-color="#4C63B2"></stop>
      <stop offset="0.721854" stop-color="white" stop-opacity="0.707796"></stop>
      <stop offset="1" stop-color="white" stop-opacity="0.0971919"></stop>
    </linearGradient>
    <clipPath id="75e2640c">
      <rect width="84" height="84" rx="42" fill="white"></rect>
    </clipPath>
  </defs>
</svg>
