<svg width="500" height="500" viewBox="0 0 84 84" fill="none" xmlns="http://www.w3.org/2000/svg">
  <g id="5279a16f">
    <g clip-path="url(#5a38fa26)">
      <rect width="84" height="84" rx="42" fill="url(#cf0b6fa0)"></rect>
      <path id="c0a3db81" opacity="0.4" fill-rule="evenodd" clip-rule="evenodd" d="M88.4348 74.9294C88.4348 74.9294 87.8916 57.8172 75.5778 55.1415C64.8116 53.5503 56.5111 65.9007 46.8841 65.9007C35.6642 65.9007 30.3765 58.7332 19.4831 58.7332C11.538 58.7332 3.7797 64.9647 -7.03967 62.8046C-10.6386 62.0861 -16 60.8497 -16 60.8497L-15.8217 84.4273L88.4348 86.018V74.9294Z" fill="url(#2632d079)"></path>
      <path id="49bcc2d0" opacity="0.6" fill-rule="evenodd" clip-rule="evenodd" d="M-19 87.5255C-19 87.5255 -18.277 64.7497 -1.88773 61.1884C12.4418 59.0705 23.4895 75.5086 36.3029 75.5086C51.2363 75.5086 58.2741 65.9687 72.7729 65.9687C83.3477 65.9687 93.6737 74.2628 108.074 71.3878C112.864 70.4314 120 68.7857 120 68.7857L119.763 100.167L-19 102.284V87.5255Z" fill="url(#d7a1cd2e)"></path>
      <path id="665873d6" d="M32 27.1386C31.5195 27.2356 31.022 27.2865 30.5125 27.2865C26.4319 27.2865 23.1239 24.0214 23.1239 19.9938C23.1239 18.5194 23.5672 17.1472 24.3294 16C21.259 16.8189 19 19.5876 19 22.877C19 26.8109 22.2311 30 26.2168 30C28.5834 30 30.6839 28.8756 32 27.1386Z" fill="#FFE59B"></path>
      <circle id="7f137f1f" cx="62.5" cy="32.5" r="0.5" fill="#FFF357"></circle>
      <circle id="c637a25e" cx="34.5" cy="8.5" r="0.5" fill="#FFF357"></circle>
      <circle id="88270cab" cx="8.5" cy="26.5" r="0.5" fill="#FFF357"></circle>
      <circle id="9e4ab40f" cx="55.5" cy="13.5" r="0.5" fill="#FFF357"></circle>
      <path id="c1ed0a90" d="M40.2801 12.3311C40.0405 12.1939 39.9575 11.8884 40.0948 11.6488C40.232 11.4091 40.5376 11.3262 40.7772 11.4634L57.7199 21.1688C57.9595 21.3061 58.0425 21.6116 57.9052 21.8512C57.768 22.0908 57.4624 22.1738 57.2228 22.0365L40.2801 12.3311Z" fill="url(#2c7a3f6d)"></path>
    </g>
  </g>
  <defs>
    <linearGradient id="cf0b6fa0" x1="-11.4399" y1="0" x2="-11.4399" y2="106.88" gradientUnits="userSpaceOnUse">
      <stop stop-color="#3A36FF"></stop>
      <stop offset="0.625" stop-color="#5398FF"></stop>
      <stop offset="1" stop-color="#41B7FA"></stop>
    </linearGradient>
    <linearGradient id="2632d079" x1="102.658" y1="55" x2="102.658" y2="94.4666" gradientUnits="userSpaceOnUse">
      <stop stop-color="#3A36FF"></stop>
      <stop offset="0.625" stop-color="#5398FF"></stop>
      <stop offset="1" stop-color="#41B7FA"></stop>
    </linearGradient>
    <linearGradient id="d7a1cd2e" x1="-37.9303" y1="61" x2="-37.9303" y2="113.529" gradientUnits="userSpaceOnUse">
      <stop stop-color="#3A36FF"></stop>
      <stop offset="0.625" stop-color="#5398FF"></stop>
      <stop offset="1" stop-color="#41B7FA"></stop>
    </linearGradient>
    <linearGradient id="2c7a3f6d" x1="33.4021" y1="19.4045" x2="49.0241" y2="32.3307" gradientUnits="userSpaceOnUse">
      <stop stop-color="#FFFA90" stop-opacity="0.01"></stop>
      <stop offset="1" stop-color="#FBF5A3"></stop>
    </linearGradient>
    <clipPath id="5a38fa26">
      <rect width="84" height="84" rx="42" fill="white"></rect>
    </clipPath>
  </defs>
</svg>
