<svg width="500" height="500" viewBox="0 0 84 84" fill="none" xmlns="http://www.w3.org/2000/svg">
  <g id="49c2f6ae">
    <g clip-path="url(#4b5c5fb2)">
      <g id="0de8dcb4">
        <circle id="a4698e03" cx="42" cy="42" r="42" fill="url(#067885e3)"></circle>
        <path id="2c1c6596" opacity="0.9" fill-rule="evenodd" clip-rule="evenodd" d="M22.1266 23.8694H30.8984C33.6006 23.8694 35.7913 21.6671 35.7913 18.9505C35.7913 16.2338 33.6006 14.0315 30.8984 14.0315C30.0829 14.0315 29.3141 14.2321 28.6379 14.5868C27.6965 11.8415 25.1041 9.86938 22.0536 9.86938C18.2081 9.86938 15.0907 13.0034 15.0907 16.8694C15.0907 16.9486 15.092 17.0275 15.0946 17.1061C13.972 17.7124 13.2088 18.904 13.2088 20.2748C13.2088 22.26 14.8096 23.8694 16.7843 23.8694H22.0536C22.0646 23.8694 22.1266 23.8694 22.1266 23.8694H22.0536H22.1266Z" fill="#E9E9F1"></path>
        <g id="43751bde">
          <g id="5e254ec5">
            <path fill-rule="evenodd" clip-rule="evenodd" d="M42.4523 82.4343C42.4523 86.6222 39.0545 90.017 34.863 90.017C30.6714 90.017 27.2737 86.6222 27.2737 82.4343C27.2737 78.2464 30.6714 74.8516 34.863 74.8516C39.0545 74.8516 42.4523 78.2464 42.4523 82.4343" fill="#9AD190"></path>
            <path fill-rule="evenodd" clip-rule="evenodd" d="M42.4523 82.4343C42.4523 86.6222 39.0545 90.017 34.863 90.017C30.6714 90.017 27.2737 86.6222 27.2737 82.4343C27.2737 78.2464 30.6714 74.8516 34.863 74.8516C39.0545 74.8516 42.4523 78.2464 42.4523 82.4343" fill="#8DBBA5"></path>
          </g>
          <g id="fafba80e">
            <path fill-rule="evenodd" clip-rule="evenodd" d="M46.9165 73.811C46.9165 77.9989 43.5187 81.3937 39.3272 81.3937C35.1357 81.3937 31.7379 77.9989 31.7379 73.811C31.7379 69.6231 35.1357 66.2283 39.3272 66.2283C43.5187 66.2283 46.9165 69.6231 46.9165 73.811" fill="#9AD190"></path>
            <path fill-rule="evenodd" clip-rule="evenodd" d="M46.9165 73.811C46.9165 77.9989 43.5187 81.3937 39.3272 81.3937C35.1357 81.3937 31.7379 77.9989 31.7379 73.811C31.7379 69.6231 35.1357 66.2283 39.3272 66.2283C43.5187 66.2283 46.9165 69.6231 46.9165 73.811" fill="#8DBBA5"></path>
          </g>
          <path id="40d1cfed" fill-rule="evenodd" clip-rule="evenodd" d="M62.6902 97.1351H109.565V49.3447H62.6902V97.1351Z" fill="#D4A3C6"></path>
          <path id="6a9d6535" fill-rule="evenodd" clip-rule="evenodd" d="M103.353 38.2761H48.1072V54.9657H113.732L103.353 38.2761" fill="#98567D"></path>
          <path id="031ffcc3" fill-rule="evenodd" clip-rule="evenodd" d="M63.1184 97.3024H32.7612V49.512L48.2371 38.5737L63.1184 49.512V97.3024" fill="#DCAFD2"></path>
          <path id="6cb12f9e" fill-rule="evenodd" clip-rule="evenodd" d="M30.5813 54.4889L28.9143 52.3943L48.2902 37L66.0728 51.6663L64.3679 53.7302L48.2589 40.4443L30.5813 54.4889" fill="#76486D"></path>
          <path id="a01c6982" fill-rule="evenodd" clip-rule="evenodd" d="M108.252 79.1079H65.3822C65.0223 79.1079 64.8103 78.7047 65.0148 78.4085L70.7893 70.0452C70.8723 69.9248 71.0098 69.8525 71.1567 69.8525H103.174C103.33 69.8525 103.475 69.9337 103.556 70.0671L108.634 78.4304C108.814 78.7279 108.6 79.1079 108.252 79.1079" fill="#98567D"></path>
          <path id="42f6148e" fill-rule="evenodd" clip-rule="evenodd" d="M38.0625 97.3768H57.9286V77.9739H38.0625V97.3768Z" fill="#8C736A"></path>
          <path id="8adc2297" fill-rule="evenodd" clip-rule="evenodd" d="M58.5982 97.3769H57.2589V78.6431H38.7321V97.3769H37.3928V77.974C37.3928 77.6047 37.6924 77.3049 38.0625 77.3049H57.9285C58.2982 77.3049 58.5982 77.6047 58.5982 77.974V97.3769" fill="#DDDEFE"></path>
          <path id="20a51221" fill-rule="evenodd" clip-rule="evenodd" d="M71.2281 67.1205H78.1723V58.7402H71.2281V67.1205Z" fill="#8DA6DC"></path>
          <path id="fb16c293" fill-rule="evenodd" clip-rule="evenodd" d="M71.8978 66.4513H77.5027V59.4097H71.8978V66.4513ZM78.1723 67.7895H71.2281C70.8585 67.7895 70.5585 67.4897 70.5585 67.1204V58.7406C70.5585 58.3713 70.8585 58.0715 71.2281 58.0715H78.1723C78.5424 58.0715 78.842 58.3713 78.842 58.7406V67.1204C78.842 67.4897 78.5424 67.7895 78.1723 67.7895V67.7895Z" fill="#DDDEFE"></path>
          <path id="b148521c" fill-rule="evenodd" clip-rule="evenodd" d="M70.8375 97.4513H78.3152V81.9138H70.8375V97.4513Z" fill="#9E764F"></path>
          <path id="384d199b" fill-rule="evenodd" clip-rule="evenodd" d="M78.9848 97.4514H77.6455V82.5835H71.5071V97.4514H70.1678V81.9144C70.1678 81.5451 70.4678 81.2454 70.8375 81.2454H78.3152C78.6853 81.2454 78.9848 81.5451 78.9848 81.9144V97.4514" fill="#FCFCFC"></path>
          <path id="d4c3d60c" fill-rule="evenodd" clip-rule="evenodd" d="M53.6706 57.3722C53.4956 54.1727 50.8514 51.6294 47.6049 51.6294C44.3585 51.6294 41.7143 54.1727 41.5393 57.3722H41.5223V68.5701H53.6875V57.3722H53.6706" fill="#8DA6DC"></path>
          <path id="eabb7677" fill-rule="evenodd" clip-rule="evenodd" d="M42.1919 67.9009H53.0178V57.5197L53.0018 57.4087C52.8451 54.5433 50.4745 52.2983 47.6049 52.2983C44.7353 52.2983 42.3647 54.5433 42.2076 57.4087L42.1919 57.5224V67.9009ZM53.6875 69.2391H41.5223C41.1522 69.2391 40.8527 68.9393 40.8527 68.57V57.3721C40.8527 57.3052 40.8625 57.24 40.8808 57.1789C41.1527 53.6793 44.0763 50.9602 47.6049 50.9602C51.1335 50.9602 54.0567 53.6793 54.3286 57.1789C54.3469 57.24 54.3571 57.3052 54.3571 57.3721V68.57C54.3571 68.9393 54.0571 69.2391 53.6875 69.2391V69.2391Z" fill="#DDDEFE"></path>
          <path id="c526f82d" fill-rule="evenodd" clip-rule="evenodd" d="M46.9353 68.3101H48.2746V51.5835H46.9353V68.3101Z" fill="#DDDEFE"></path>
          <path id="8255c81f" fill-rule="evenodd" clip-rule="evenodd" d="M41.6339 58.125H53.6129V56.7869H41.6339V58.125Z" fill="#DDDEFE"></path>
          <path id="ee1a87a1" fill-rule="evenodd" clip-rule="evenodd" d="M72.2144 90.2401H76.9389V83.7725H72.2144V90.2401Z" fill="#9CC1DC"></path>
          <g id="565e6891">
            <path fill-rule="evenodd" clip-rule="evenodd" d="M39.625 97.3398H41.0629V78.6453H39.625V97.3398Z" fill="#B99068"></path>
            <path fill-rule="evenodd" clip-rule="evenodd" d="M39.625 97.3398H41.0629V78.6453H39.625V97.3398Z" fill="#A78885"></path>
          </g>
          <g id="9f7ad7c5">
            <path fill-rule="evenodd" clip-rule="evenodd" d="M42.1818 97.3398H43.6197V78.6453H42.1818V97.3398Z" fill="#B99068"></path>
            <path fill-rule="evenodd" clip-rule="evenodd" d="M42.1818 97.3398H43.6197V78.6453H42.1818V97.3398Z" fill="#A78885"></path>
          </g>
          <g id="bbce0183">
            <path fill-rule="evenodd" clip-rule="evenodd" d="M44.7384 97.3398H46.1763V78.6453H44.7384V97.3398Z" fill="#B99068"></path>
            <path fill-rule="evenodd" clip-rule="evenodd" d="M44.7384 97.3398H46.1763V78.6453H44.7384V97.3398Z" fill="#A78885"></path>
          </g>
          <g id="9b3bc146">
            <path fill-rule="evenodd" clip-rule="evenodd" d="M47.2952 97.3398H48.7331V78.6453H47.2952V97.3398Z" fill="#B99068"></path>
            <path fill-rule="evenodd" clip-rule="evenodd" d="M47.2952 97.3398H48.7331V78.6453H47.2952V97.3398Z" fill="#A78885"></path>
          </g>
          <g id="b5122266">
            <path fill-rule="evenodd" clip-rule="evenodd" d="M49.8513 97.3398H51.2897V78.6453H49.8513V97.3398Z" fill="#B99068"></path>
            <path fill-rule="evenodd" clip-rule="evenodd" d="M49.8513 97.3398H51.2897V78.6453H49.8513V97.3398Z" fill="#A78885"></path>
          </g>
          <g id="41c80f41">
            <path fill-rule="evenodd" clip-rule="evenodd" d="M52.4084 97.3398H53.8468V78.6453H52.4084V97.3398Z" fill="#B99068"></path>
            <path fill-rule="evenodd" clip-rule="evenodd" d="M52.4084 97.3398H53.8468V78.6453H52.4084V97.3398Z" fill="#A78885"></path>
          </g>
          <g id="0893b162">
            <path fill-rule="evenodd" clip-rule="evenodd" d="M54.9652 97.3398H56.4036V78.6453H54.9652V97.3398Z" fill="#B99068"></path>
            <path fill-rule="evenodd" clip-rule="evenodd" d="M54.9652 97.3398H56.4036V78.6453H54.9652V97.3398Z" fill="#A78885"></path>
          </g>
          <path id="f023a19a" fill-rule="evenodd" clip-rule="evenodd" d="M65.1482 80.3713H108.493V79.0332H65.1482V80.3713Z" fill="#32424F"></path>
          <path id="f62c41cb" fill-rule="evenodd" clip-rule="evenodd" d="M63.1183 56.2112H113.721V54.873H63.1183V56.2112Z" fill="#6C3D62"></path>
          <path id="d1e527eb" fill-rule="evenodd" clip-rule="evenodd" d="M71.2839 62.697H78.2411V61.3589H71.2839V62.697Z" fill="#DDDEFE"></path>
          <path id="fad5a3a4" fill-rule="evenodd" clip-rule="evenodd" d="M103.762 77.5278H78.4643C78.0942 77.5278 77.7947 77.2281 77.7947 76.8588C77.7947 76.4894 78.0942 76.1897 78.4643 76.1897H103.762C104.132 76.1897 104.431 76.4894 104.431 76.8588C104.431 77.2281 104.132 77.5278 103.762 77.5278" fill="#32424F"></path>
          <path id="3295f745" fill-rule="evenodd" clip-rule="evenodd" d="M89.9224 74.8516H70.3541C69.9844 74.8516 69.6844 74.5518 69.6844 74.1825C69.6844 73.8132 69.9844 73.5134 70.3541 73.5134H89.9224C90.2925 73.5134 90.592 73.8132 90.592 74.1825C90.592 74.5518 90.2925 74.8516 89.9224 74.8516" fill="#32424F"></path>
          <path id="f627156b" fill-rule="evenodd" clip-rule="evenodd" d="M93.1964 72.3245H77.3482C76.9781 72.3245 76.6786 72.0247 76.6786 71.6554C76.6786 71.2861 76.9781 70.9863 77.3482 70.9863H93.1964C93.5661 70.9863 93.8661 71.2861 93.8661 71.6554C93.8661 72.0247 93.5661 72.3245 93.1964 72.3245" fill="#32424F"></path>
          <path id="e77be075" fill-rule="evenodd" clip-rule="evenodd" d="M75.3393 77.3794H68.717C68.3474 77.3794 68.0474 77.0796 68.0474 76.7103C68.0474 76.341 68.3474 76.0413 68.717 76.0413H75.3393C75.709 76.0413 76.009 76.341 76.009 76.7103C76.009 77.0796 75.709 77.3794 75.3393 77.3794" fill="#32424F"></path>
          <path id="b22ca7f5" fill-rule="evenodd" clip-rule="evenodd" d="M92.4522 52.6985H69.9076C69.5379 52.6985 69.2379 52.3987 69.2379 52.0294C69.2379 51.6601 69.5379 51.3604 69.9076 51.3604H92.4522C92.8223 51.3604 93.1218 51.6601 93.1218 52.0294C93.1218 52.3987 92.8223 52.6985 92.4522 52.6985" fill="#6C3D62"></path>
          <path id="0a29852e" fill-rule="evenodd" clip-rule="evenodd" d="M96.3956 49.5017H67.0058C66.6362 49.5017 66.3362 49.202 66.3362 48.8326C66.3362 48.4633 66.6362 48.1636 67.0058 48.1636H96.3956C96.7656 48.1636 97.0652 48.4633 97.0652 48.8326C97.0652 49.202 96.7656 49.5017 96.3956 49.5017" fill="#6C3D62"></path>
          <path id="8e15d1ed" fill-rule="evenodd" clip-rule="evenodd" d="M105.92 46.1565H67.9732C67.6031 46.1565 67.3036 45.8567 67.3036 45.4874C67.3036 45.1181 67.6031 44.8184 67.9732 44.8184H105.92C106.289 44.8184 106.589 45.1181 106.589 45.4874C106.589 45.8567 106.289 46.1565 105.92 46.1565" fill="#6C3D62"></path>
          <path id="7a63ef1c" fill-rule="evenodd" clip-rule="evenodd" d="M82.0358 43.3315H58.4492C58.0795 43.3315 57.7795 43.0318 57.7795 42.6625C57.7795 42.2931 58.0795 41.9934 58.4492 41.9934H82.0358C82.4054 41.9934 82.7054 42.2931 82.7054 42.6625C82.7054 43.0318 82.4054 43.3315 82.0358 43.3315" fill="#6C3D62"></path>
          <path id="29634ab9" fill-rule="evenodd" clip-rule="evenodd" d="M101.381 40.7295H55.6965C55.3264 40.7295 55.0269 40.4297 55.0269 40.0604C55.0269 39.6911 55.3264 39.3914 55.6965 39.3914H101.381C101.751 39.3914 102.051 39.6911 102.051 40.0604C102.051 40.4297 101.751 40.7295 101.381 40.7295" fill="#6C3D62"></path>
        </g>
      </g>
      <path id="f088a231" opacity="0.9" fill-rule="evenodd" clip-rule="evenodd" d="M66.0429 32.8694H56.6446C53.7493 32.8694 51.4022 30.5098 51.4022 27.5991C51.4022 24.6884 53.7493 22.3288 56.6446 22.3288C57.5183 22.3288 58.3421 22.5437 59.0665 22.9238C60.0752 19.9824 62.8527 17.8694 66.1212 17.8694C70.2414 17.8694 73.5814 21.2272 73.5814 25.3694C73.5814 25.4543 73.58 25.5388 73.5773 25.6231C74.78 26.2727 75.5977 27.5493 75.5977 29.018C75.5977 31.1451 73.8826 32.8694 71.7668 32.8694H66.1212C66.1094 32.8694 66.0429 32.8694 66.0429 32.8694H66.1212H66.0429Z" fill="#E9E9F1"></path>
    </g>
  </g>
  <defs>
    <linearGradient id="067885e3" x1="-18.8033" y1="37.903" x2="45.0005" y2="115.902" gradientUnits="userSpaceOnUse">
      <stop stop-color="#445FE2"></stop>
      <stop offset="1" stop-color="#5385AC"></stop>
    </linearGradient>
    <clipPath id="4b5c5fb2">
      <rect width="84" height="84" rx="42" fill="white"></rect>
    </clipPath>
  </defs>
</svg>
