<?xml version="1.0" encoding="iso-8859-1"?>
<!-- Uploaded to: SVG Repo, www.svgrepo.com, Generator: SVG Repo Mixer Tools -->
<svg height="800px" width="800px" version="1.1" id="Layer_1" xmlns="http://www.w3.org/2000/svg" xmlns:xlink="http://www.w3.org/1999/xlink" 
	 viewBox="0 0 512.003 512.003" xml:space="preserve">
<path style="fill:#DEDEE0;" d="M480.306,31.696c-20.438-20.438-47.612-31.695-76.517-31.695
	c-28.907,0.001-56.081,11.256-76.521,31.695L67.561,291.406l-0.006,0.004c-0.502,0.502-0.974,1.024-1.42,1.568
	c-0.111,0.133-0.203,0.28-0.31,0.416c-0.329,0.421-0.656,0.843-0.952,1.287c-0.088,0.127-0.157,0.267-0.242,0.397
	c-0.297,0.466-0.589,0.935-0.851,1.421c-0.05,0.095-0.091,0.199-0.141,0.297c-0.274,0.53-0.538,1.068-0.766,1.619
	c-0.029,0.068-0.049,0.141-0.076,0.209c-0.237,0.584-0.453,1.176-0.638,1.78c-0.025,0.078-0.038,0.156-0.061,0.232
	c-0.175,0.597-0.333,1.202-0.454,1.814c-0.036,0.183-0.053,0.372-0.085,0.557c-0.088,0.512-0.18,1.023-0.229,1.544
	c-0.071,0.708-0.11,1.43-0.11,2.161v113.464l6.33-6.331c0.003-0.003,0.006-0.004,0.009-0.007l0.006-0.007l0.014-0.014
	c1.023-1.019,2.122-1.909,3.28-2.681c0.032-0.023,0.063-0.049,0.095-0.072c0.478-0.315,0.971-0.592,1.466-0.866
	c0.128-0.071,0.251-0.156,0.381-0.224c0.342-0.18,0.695-0.326,1.048-0.486c0.291-0.134,0.577-0.286,0.874-0.405
	c0.169-0.069,0.343-0.115,0.514-0.18c1.143-0.43,2.309-0.778,3.495-1.007c0.232-0.045,0.469-0.063,0.703-0.1
	c0.452-0.074,0.902-0.152,1.355-0.196c0.691-0.066,1.382-0.098,2.075-0.098c5.539,0,11.078,2.112,15.301,6.338
	c4.228,4.226,6.338,9.767,6.34,15.303c0,0.127-0.016,0.254-0.019,0.382c-0.012,0.584-0.03,1.17-0.087,1.743
	c-0.038,0.362-0.104,0.724-0.157,1.088c-0.051,0.333-0.088,0.675-0.152,1.006c-0.079,0.391-0.186,0.776-0.286,1.163
	c-0.075,0.297-0.14,0.599-0.227,0.892c-0.113,0.372-0.255,0.739-0.388,1.107c-0.107,0.299-0.206,0.602-0.326,0.892
	c-0.144,0.342-0.312,0.678-0.472,1.014c-0.144,0.302-0.277,0.61-0.436,0.906c-0.173,0.325-0.375,0.639-0.568,0.958
	c-0.172,0.287-0.335,0.58-0.518,0.857c-0.242,0.362-0.512,0.71-0.781,1.058c-0.16,0.214-0.31,0.436-0.479,0.642
	c-0.452,0.55-0.929,1.084-1.443,1.596l-0.017,0.017l-6.323,6.323l113.468,0.003c5.712-0.001,11.194-2.258,15.247-6.284
	c0.063-0.062,0.128-0.128,0.193-0.193l259.574-259.575c20.439-20.439,31.695-47.615,31.695-76.519
	C512.001,79.31,500.745,52.134,480.306,31.696z"/>
<path style="fill:#77757F;" d="M98.162,444.446c0.512-0.512,0.993-1.046,1.443-1.596c0.169-0.208,0.319-0.429,0.479-0.642
	c0.268-0.348,0.538-0.695,0.781-1.058c0.183-0.276,0.346-0.57,0.518-0.857c0.193-0.319,0.394-0.633,0.568-0.958
	c0.157-0.296,0.291-0.605,0.436-0.906c0.16-0.336,0.329-0.672,0.472-1.014c0.12-0.29,0.218-0.593,0.326-0.892
	c0.134-0.368,0.276-0.734,0.39-1.107c0.088-0.293,0.152-0.594,0.227-0.892c0.1-0.387,0.208-0.77,0.286-1.163
	c0.065-0.33,0.101-0.672,0.152-1.006c0.053-0.364,0.12-0.726,0.157-1.088c0.056-0.573,0.076-1.159,0.087-1.743
	c0.003-0.128,0.019-0.255,0.019-0.382c-0.001-5.538-2.112-11.078-6.34-15.303c-4.225-4.226-9.764-6.338-15.301-6.338
	c-0.693,0-1.384,0.032-2.075,0.098c-0.453,0.043-0.905,0.123-1.355,0.196c-0.234,0.036-0.47,0.055-0.703,0.1
	c-1.186,0.229-2.352,0.579-3.495,1.007c-0.17,0.065-0.345,0.111-0.514,0.18c-0.297,0.12-0.583,0.271-0.874,0.405
	c-0.349,0.16-0.704,0.306-1.048,0.486c-0.13,0.068-0.252,0.154-0.381,0.224c-0.495,0.273-0.988,0.551-1.466,0.866
	c-0.032,0.023-0.063,0.049-0.095,0.072c-1.164,0.776-2.271,1.674-3.3,2.702l-6.338,6.337L6.338,475.054
	c-8.451,8.451-8.451,22.154,0,30.607c4.228,4.226,9.767,6.34,15.304,6.34s11.078-2.114,15.303-6.34l54.876-54.876l6.323-6.323
	L98.162,444.446z"/>
<g>
	<path style="fill:#D8143A;" d="M327.268,154.126L104.502,376.893l-21.643,21.641l-15.286,15.284
		c1.023-1.019,2.124-1.909,3.281-2.681c0.032-0.023,0.063-0.049,0.095-0.072c0.478-0.315,0.971-0.592,1.466-0.866
		c0.128-0.071,0.251-0.156,0.381-0.224c0.342-0.18,0.695-0.326,1.048-0.486c0.291-0.134,0.577-0.286,0.874-0.405
		c0.169-0.069,0.343-0.115,0.514-0.18c1.143-0.43,2.309-0.778,3.495-1.007c0.232-0.045,0.469-0.064,0.703-0.1
		c0.45-0.074,0.902-0.151,1.355-0.196c0.691-0.066,1.382-0.098,2.075-0.098c5.539,0,11.078,2.112,15.301,6.338
		c4.228,4.226,6.338,9.765,6.34,15.303c0,0.127-0.016,0.254-0.019,0.382c-0.012,0.584-0.03,1.17-0.087,1.743
		c-0.038,0.362-0.104,0.724-0.157,1.088c-0.051,0.333-0.088,0.675-0.152,1.006c-0.079,0.392-0.186,0.776-0.286,1.163
		c-0.075,0.297-0.14,0.599-0.227,0.892c-0.113,0.372-0.255,0.739-0.39,1.107c-0.107,0.299-0.206,0.602-0.326,0.892
		c-0.144,0.342-0.312,0.678-0.472,1.014c-0.144,0.302-0.277,0.61-0.436,0.906c-0.173,0.325-0.375,0.639-0.568,0.958
		c-0.172,0.287-0.335,0.58-0.518,0.857c-0.242,0.362-0.512,0.71-0.781,1.058c-0.16,0.214-0.31,0.436-0.479,0.642
		c-0.452,0.55-0.931,1.084-1.443,1.596l0.001-0.001l0.017-0.019l15.284-15.284l21.643-21.641l222.768-222.768
		c4.652-4.653,6.728-10.895,6.261-16.978c-0.012-0.134-0.007-0.268-0.02-0.4c-0.012-0.121-0.039-0.24-0.052-0.359
		c-0.53-4.702-2.583-9.265-6.19-12.87C349.423,145.673,335.72,145.673,327.268,154.126z"/>
	<path style="fill:#D8143A;" d="M78.727,407.896c-1.186,0.229-2.352,0.577-3.495,1.007
		C76.375,408.476,77.541,408.126,78.727,407.896z"/>
	<path style="fill:#D8143A;" d="M80.786,407.6c-0.453,0.043-0.905,0.123-1.355,0.196C79.881,407.722,80.332,407.644,80.786,407.6z"
		/>
	<path style="fill:#D8143A;" d="M72.797,409.976c-0.13,0.068-0.252,0.154-0.381,0.224C72.545,410.129,72.667,410.044,72.797,409.976
		z"/>
	<path style="fill:#D8143A;" d="M70.95,411.065c-0.032,0.023-0.063,0.049-0.095,0.072C70.887,411.115,70.918,411.087,70.95,411.065z
		"/>
	<path style="fill:#D8143A;" d="M74.719,409.084c-0.297,0.12-0.583,0.271-0.874,0.405C74.135,409.356,74.422,409.204,74.719,409.084
		z"/>
</g>
<g>
	<path style="fill:#D6D5D8;" d="M357.878,154.128c3.604,3.606,5.659,8.167,6.187,12.869c0.013,0.12,0.04,0.238,0.052,0.359
		c0.013,0.133,0.009,0.268,0.02,0.4c0.467,6.083-1.607,12.325-6.26,16.978l-222.77,222.768l-21.643,21.641L98.18,444.427
		l-0.017,0.019l-0.001,0.001l-0.017,0.017l-6.323,6.323l113.468,0.003c5.712-0.001,11.194-2.258,15.247-6.284
		c0.063-0.062,0.128-0.128,0.193-0.193l259.574-259.575c20.439-20.439,31.695-47.615,31.695-76.519
		c0.001-28.906-11.254-56.082-31.694-76.52L357.878,154.128z"/>
	<path style="fill:#D6D5D8;" d="M357.876,184.733c4.653-4.653,6.728-10.895,6.261-16.978
		C364.604,173.838,362.526,180.08,357.876,184.733z"/>
	<path style="fill:#D6D5D8;" d="M364.065,166.996c0.013,0.12,0.04,0.238,0.052,0.359
		C364.105,167.234,364.078,167.116,364.065,166.996z"/>
</g>
<g>
	<polygon style="fill:#DEDEE0;" points="67.561,413.833 67.555,413.84 67.574,413.818 	"/>
	<polygon style="fill:#DEDEE0;" points="67.547,413.846 61.217,420.177 67.555,413.84 	"/>
	<polygon style="fill:#DEDEE0;" points="82.859,398.534 67.561,413.833 67.574,413.818 	"/>
</g>
</svg>